<?xml version="1.0" encoding="utf-8"?>
<!-- Generator: Adobe Illustrator 25.2.0, SVG Export Plug-In . SVG Version: 6.00 Build 0)  -->
<svg version="1.1" id="Layer_1" xmlns="http://www.w3.org/2000/svg" xmlns:xlink="http://www.w3.org/1999/xlink" x="0px" y="0px"
	 viewBox="0 0 720 420" style="enable-background:new 0 0 720 420;" xml:space="preserve">
<style type="text/css">
	.st0{fill:#878787;}
	.st1{fill:#555655;}
	.st2{fill:#04253C;}
	.st3{fill:#F5F7F7;}
	.st4{fill:#E3E3E2;}
	.st5{fill:#EDEDEE;}
	.st6{fill:#355163;}
	.st7{fill:#D3EBF8;}
	.st8{fill:#677D8B;}
	.st9{opacity:0.28;fill:#757675;enable-background:new    ;}
	.st10{opacity:0.27;fill:#868686;enable-background:new    ;}
	.st11{fill:#868686;}
	.st12{fill:#84D3E7;}
	.st13{fill:#F6F7F7;}
	.st14{fill:#E1E2E1;}
	.st15{fill:#CCEBF9;}
	.st16{fill:#03253D;}
	.st17{fill:#CFCFCE;}
	.st18{fill:#01B0DA;}
	.st19{fill:#CFD0D0;}
	.st20{fill:#E8E7E7;}
	.st21{fill:#C7C6C5;}
	.st22{fill:#FFFFFF;}
	.st23{clip-path:url(#SVGID_10_);}
	.st24{clip-path:url(#SVGID_12_);fill:#03253D;}
	.st25{clip-path:url(#SVGID_14_);}
	.st26{clip-path:url(#SVGID_16_);fill:#03253D;}
	.st27{clip-path:url(#SVGID_18_);}
	.st28{clip-path:url(#SVGID_20_);fill:#03253D;}
	.st29{clip-path:url(#SVGID_22_);}
	.st30{clip-path:url(#SVGID_24_);fill:#03253D;}
	.st31{clip-path:url(#SVGID_26_);}
	.st32{clip-path:url(#SVGID_28_);fill:#03253D;}
	.st33{clip-path:url(#SVGID_30_);}
	.st34{clip-path:url(#SVGID_32_);fill:#41ADD2;}
	.st35{clip-path:url(#SVGID_34_);}
	.st36{clip-path:url(#SVGID_36_);fill:#FFFFFF;}
	.st37{fill:#F3F3F3;}
	.st38{fill:#E9E8E7;}
	.st39{fill:#EAEAEA;}
	.st40{fill:#052338;}
	.st41{fill:#928B8B;}
	.st42{fill:#D8D8D7;}
	.st43{fill:#04BDE4;}
	.st44{clip-path:url(#SVGID_38_);}
	.st45{clip-path:url(#SVGID_40_);fill:#03253D;}
	.st46{clip-path:url(#SVGID_42_);}
	.st47{clip-path:url(#SVGID_44_);fill:#03253D;}
	.st48{clip-path:url(#SVGID_46_);}
	.st49{clip-path:url(#SVGID_48_);fill:#03253D;}
	.st50{clip-path:url(#SVGID_50_);}
	.st51{clip-path:url(#SVGID_52_);fill:#03253D;}
	.st52{clip-path:url(#SVGID_54_);}
	.st53{clip-path:url(#SVGID_56_);fill:#03253D;}
	.st54{clip-path:url(#SVGID_58_);}
	.st55{clip-path:url(#SVGID_60_);fill:#41ADD2;}
	.st56{clip-path:url(#SVGID_62_);}
	.st57{clip-path:url(#SVGID_64_);fill:#FFFFFF;}
	.st58{clip-path:url(#SVGID_66_);}
	.st59{clip-path:url(#SVGID_68_);fill:#03253D;}
	.st60{clip-path:url(#SVGID_70_);}
	.st61{clip-path:url(#SVGID_72_);fill:#03253D;}
	.st62{clip-path:url(#SVGID_74_);}
	.st63{clip-path:url(#SVGID_76_);fill:#03253D;}
	.st64{clip-path:url(#SVGID_78_);}
	.st65{clip-path:url(#SVGID_80_);fill:#03253D;}
	.st66{clip-path:url(#SVGID_82_);}
	.st67{clip-path:url(#SVGID_84_);fill:#03253D;}
	.st68{clip-path:url(#SVGID_86_);}
	.st69{clip-path:url(#SVGID_88_);fill:#41ADD2;}
	.st70{clip-path:url(#SVGID_90_);}
	.st71{clip-path:url(#SVGID_92_);fill:#FFFFFF;}
	.st72{clip-path:url(#SVGID_94_);}
	.st73{clip-path:url(#SVGID_96_);fill:#03253D;}
	.st74{clip-path:url(#SVGID_98_);}
	.st75{clip-path:url(#SVGID_100_);fill:#03253D;}
	.st76{clip-path:url(#SVGID_102_);}
	.st77{clip-path:url(#SVGID_104_);fill:#03253D;}
	.st78{clip-path:url(#SVGID_106_);}
	.st79{clip-path:url(#SVGID_108_);fill:#03253D;}
	.st80{clip-path:url(#SVGID_110_);}
	.st81{clip-path:url(#SVGID_112_);fill:#03253D;}
	.st82{clip-path:url(#SVGID_114_);}
	.st83{clip-path:url(#SVGID_116_);fill:#41ADD2;}
	.st84{clip-path:url(#SVGID_118_);}
	.st85{clip-path:url(#SVGID_120_);fill:#FFFFFF;}
	.st86{clip-path:url(#SVGID_122_);}
	.st87{clip-path:url(#SVGID_124_);fill:#03253D;}
	.st88{clip-path:url(#SVGID_126_);}
	.st89{clip-path:url(#SVGID_128_);fill:#03253D;}
	.st90{clip-path:url(#SVGID_130_);}
	.st91{clip-path:url(#SVGID_132_);fill:#03253D;}
	.st92{clip-path:url(#SVGID_134_);}
	.st93{clip-path:url(#SVGID_136_);fill:#03253D;}
	.st94{clip-path:url(#SVGID_138_);}
	.st95{clip-path:url(#SVGID_140_);fill:#03253D;}
	.st96{clip-path:url(#SVGID_142_);}
	.st97{clip-path:url(#SVGID_144_);fill:#41ADD2;}
	.st98{clip-path:url(#SVGID_146_);}
	.st99{clip-path:url(#SVGID_148_);fill:#FFFFFF;}
</style>
<g>
	<defs>
		<rect id="SVGID_1_" width="720" height="420"/>
	</defs>
	<use xlink:href="#SVGID_1_"  style="overflow:visible;fill:#E5F5FC;"/>
	<clipPath id="SVGID_2_">
		<use xlink:href="#SVGID_1_"  style="overflow:visible;"/>
	</clipPath>
</g>
<g>
	<defs>
		<rect id="SVGID_3_" y="316.95" width="720" height="103.05"/>
	</defs>
	<use xlink:href="#SVGID_3_"  style="overflow:visible;fill:#E3E3E2;"/>
	<clipPath id="SVGID_4_">
		<use xlink:href="#SVGID_3_"  style="overflow:visible;"/>
	</clipPath>
</g>
<g>
	<defs>
		<rect id="SVGID_5_" y="218.3" width="720" height="77.85"/>
	</defs>
	<use xlink:href="#SVGID_5_"  style="overflow:visible;fill:#B7E4F8;"/>
	<clipPath id="SVGID_6_">
		<use xlink:href="#SVGID_5_"  style="overflow:visible;"/>
	</clipPath>
</g>
<g>
	<defs>
		<rect id="SVGID_7_" y="285.85" width="720" height="36.65"/>
	</defs>
	<use xlink:href="#SVGID_7_"  style="overflow:visible;fill:#BBBBBB;"/>
	<clipPath id="SVGID_8_">
		<use xlink:href="#SVGID_7_"  style="overflow:visible;"/>
	</clipPath>
</g>
<g>
	<g>
		<g>
			<g>
				<path class="st0" d="M187.51,274.25c0-1.9,1.3-3.2,3.2-3.2h32.5c1.9,0,3.2,1.3,3.2,3.2v21.1c0,1.9-1.3,3.2-3.2,3.2h-32.5
					c-1.9,0-3.2-1.3-3.2-3.2V274.25z"/>
			</g>
			<g>
				<path class="st0" d="M90.31,274.25c0-1.9,1.3-3.2,3.2-3.2h32.5c1.9,0,3.2,1.3,3.2,3.2v21.1c0,1.9-1.3,3.2-3.2,3.2h-32.5
					c-1.9,0-3.2-1.3-3.2-3.2C90.31,295.35,90.31,274.25,90.31,274.25z"/>
			</g>
			<g>
				<g>
					<path class="st1" d="M64.31,335.75c0-4.1,3.4-7.4,7.4-7.4s7.4,3.4,7.4,7.4c0,4.1-3.4,7.4-7.4,7.4S64.31,339.75,64.31,335.75"/>
				</g>
				<g>
					<path class="st1" d="M47.21,335.75c0,4.1,3.2,7.4,7.4,7.4c4.1,0,7.4-3.4,7.4-7.4c0-4.1-3.4-7.4-7.4-7.4
						S47.21,331.65,47.21,335.75"/>
				</g>
				<g>
					<path class="st2" d="M53.01,327.85c-1.3,0-2,1.3-1.3,2.5l3.6,4.9c0.4,0.4,0.9,0.7,1.3,0.7h6.6h6.5c0.7,0,1.2-0.3,1.3-0.7
						l3.6-4.9c0.7-1.2,0-2.5-1.3-2.5h-10.1H53.01z"/>
				</g>
			</g>
			<g>
				<path class="st1" d="M233.71,335.75c0-4.1,3.4-7.4,7.4-7.4c4.1,0,7.4,3.4,7.4,7.4c0,4.1-3.4,7.4-7.4,7.4
					C237.01,343.25,233.71,339.75,233.71,335.75"/>
			</g>
			<g>
				<path class="st1" d="M216.51,335.75c0,4.1,3.2,7.4,7.4,7.4c4.1,0,7.4-3.4,7.4-7.4c0-4.1-3.4-7.4-7.4-7.4
					C219.91,328.25,216.51,331.65,216.51,335.75"/>
			</g>
			<g>
				<path class="st2" d="M222.31,327.85c-1.3,0-2,1.3-1.3,2.5l3.6,4.9c0.4,0.4,0.9,0.7,1.3,0.7h6.5h6.5c0.7,0,1.2-0.3,1.3-0.7
					l3.6-4.9c0.7-1.2,0-2.5-1.3-2.5h-10.2H222.31z"/>
			</g>
			<g>
				<g>
					<path class="st1" d="M431.51,335.75c0-4.1,3.2-7.4,7.4-7.4c4.1,0,7.4,3.4,7.4,7.4c0,4.1-3.4,7.4-7.4,7.4
						S431.51,339.75,431.51,335.75"/>
				</g>
				<g>
					<path class="st1" d="M414.01,335.75c0,4.1,3.4,7.4,7.4,7.4c4.1,0,7.4-3.4,7.4-7.4c0-4.1-3.4-7.4-7.4-7.4
						S414.01,331.65,414.01,335.75"/>
				</g>
				<g>
					<path class="st2" d="M420.01,327.85c-1.3,0-2,1.3-1.3,2.5l3.6,4.9c0.4,0.4,0.9,0.7,1.3,0.7h6.5h6.5c0.7,0,1.2-0.3,1.3-0.7
						l3.6-4.9c0.7-1.2,0-2.5-1.3-2.5h-10.2H420.01z"/>
				</g>
			</g>
			<g>
				<g>
					<path class="st1" d="M479.41,335.75c0-4.1,3.4-7.4,7.4-7.4c4.1,0,7.4,3.4,7.4,7.4c0,4.1-3.4,7.4-7.4,7.4
						C482.81,343.25,479.41,339.75,479.41,335.75"/>
				</g>
				<g>
					<path class="st1" d="M462.21,335.75c0,4.1,3.4,7.4,7.4,7.4c4.1,0,7.4-3.4,7.4-7.4c0-4.1-3.4-7.4-7.4-7.4
						S462.21,331.65,462.21,335.75"/>
				</g>
				<g>
					<path class="st2" d="M468.21,327.85c-1.3,0-2,1.3-1.3,2.5l3.6,4.9c0.4,0.4,0.9,0.7,1.3,0.7h6.5h6.5c0.7,0,1.2-0.3,1.3-0.7
						l3.6-4.9c0.7-1.2,0-2.5-1.3-2.5h-10.2H468.21z"/>
				</g>
			</g>
			<g>
				<g>
					<path class="st1" d="M626.21,335.75c0-4.1,3.4-7.4,7.4-7.4c4.1,0,7.4,3.4,7.4,7.4c0,4.1-3.4,7.4-7.4,7.4
						C629.51,343.25,626.21,339.75,626.21,335.75"/>
				</g>
				<g>
					<path class="st1" d="M608.91,335.75c0,4.1,3.4,7.4,7.4,7.4c4.1,0,7.4-3.4,7.4-7.4c0-4.1-3.4-7.4-7.4-7.4
						C612.41,328.35,608.91,331.65,608.91,335.75"/>
				</g>
				<g>
					<path class="st2" d="M614.91,327.85c-1.3,0-2,1.3-1.3,2.5l3.6,4.9c0.4,0.4,0.9,0.7,1.3,0.7h6.5h6.5c0.7,0,1.2-0.3,1.3-0.7
						l3.6-4.9c0.7-1.2,0-2.5-1.3-2.5h-10.2H614.91z"/>
				</g>
			</g>
			<g>
				<path class="st1" d="M284.31,335.75c0-4.1,3.4-7.4,7.4-7.4c4.1,0,7.4,3.4,7.4,7.4c0,4.1-3.4,7.4-7.4,7.4
					C287.71,343.25,284.31,339.75,284.31,335.75"/>
			</g>
			<g>
				<path class="st1" d="M267.11,335.75c0,4.1,3.4,7.4,7.4,7.4c4.1,0,7.4-3.4,7.4-7.4c0-4.1-3.4-7.4-7.4-7.4
					C270.51,328.25,267.11,331.65,267.11,335.75"/>
			</g>
			<g>
				<rect x="262.01" y="324.95" class="st2" width="190.7" height="5.4"/>
			</g>
			<g>
				<path class="st3" d="M436.71,324.95v-40.7c0-2.7-2.3-4.8-4.8-4.8h-149.4c-2.7,0-4.8,2.3-4.8,4.8v40.7H436.71z"/>
			</g>
			<g>
				<g>
					<path class="st4" d="M426.21,316.95v-29.9c0-0.7,0.7-1.2,1.2-1.2h1.3c0.7,0,1.2,0.7,1.2,1.2v29.9c0,0.7-0.7,1.2-1.2,1.2h-1.3
						C426.81,318.15,426.21,317.65,426.21,316.95z"/>
				</g>
				<g>
					<path class="st4" d="M418.41,316.95v-29.9c0-0.7,0.4-1.2,1.2-1.2h1.3c0.7,0,1.2,0.7,1.2,1.2v29.9c0,0.7-0.7,1.2-1.2,1.2h-1.3
						C418.81,318.15,418.41,317.65,418.41,316.95z"/>
				</g>
				<g>
					<path class="st4" d="M410.41,316.95v-29.9c0-0.7,0.7-1.2,1.2-1.2h1.3c0.7,0,1.2,0.7,1.2,1.2v29.9c0,0.7-0.7,1.2-1.2,1.2h-1.3
						C411.11,318.15,410.71,317.65,410.41,316.95z"/>
				</g>
				<g>
					<path class="st4" d="M402.41,317.25v-29.9c0-0.7,0.7-1.2,1.2-1.2h1.3c0.7,0,1.2,0.7,1.2,1.2v29.9c0,0.4-0.4,0.9-0.9,0.9h-1.4
						C403.31,318.15,402.81,317.65,402.41,317.25z"/>
				</g>
				<g>
					<path class="st4" d="M394.91,316.95v-29.9c0-0.7,0.7-1.2,1.2-1.2h1.3c0.7,0,1.2,0.7,1.2,1.2v29.9c0,0.7-0.4,1.2-1.2,1.2h-1.3
						C395.31,318.15,394.91,317.65,394.91,316.95z"/>
				</g>
				<g>
					<path class="st4" d="M387.01,316.95v-29.9c0-0.7,0.7-1.2,1.2-1.2h1.3c0.7,0,1.2,0.7,1.2,1.2v29.9c0,0.7-0.7,1.2-1.2,1.2h-1.3
						C387.41,318.15,387.01,317.65,387.01,316.95z"/>
				</g>
				<g>
					<path class="st4" d="M379.01,316.95v-29.9c0-0.7,0.7-1.2,1.2-1.2h1.3c0.7,0,1.2,0.7,1.2,1.2v29.9c0,0.7-0.4,1.2-1.2,1.2h-1.3
						C379.71,318.15,379.31,317.65,379.01,316.95z"/>
				</g>
				<g>
					<path class="st4" d="M371.31,316.65v-29.9c0-0.4,0.4-0.9,0.9-0.9h1.3c0.7,0,1.2,0.7,1.2,1.2v29.9c0,0.7-0.7,1.2-1.2,1.2h-1.3
						C371.81,318.15,371.31,317.65,371.31,316.65z"/>
				</g>
				<g>
					<path class="st4" d="M363.51,316.95v-29.9c0-0.7,0.7-1.2,1.2-1.2h1.3c0.7,0,1.2,0.7,1.2,1.2v29.9c0,0.7-0.7,1.2-1.2,1.2h-1.3
						C363.91,318.15,363.51,317.65,363.51,316.95z"/>
				</g>
				<g>
					<path class="st4" d="M355.51,316.95v-29.9c0-0.7,0.7-1.2,1.2-1.2h1.3c0.7,0,1.2,0.7,1.2,1.2v29.9c0,0.7-0.7,1.2-1.2,1.2h-1.3
						C356.01,318.15,355.51,317.65,355.51,316.95z"/>
				</g>
				<g>
					<path class="st4" d="M347.61,316.95v-29.9c0-0.7,0.4-1.2,1.2-1.2h1.3c0.7,0,1.2,0.7,1.2,1.2v29.9c0,0.7-0.7,1.2-1.2,1.2h-1.3
						C348.41,318.15,347.81,317.65,347.61,316.95z"/>
				</g>
				<g>
					<path class="st4" d="M339.71,316.95v-29.9c0-0.7,0.7-1.2,1.2-1.2h1.3c0.7,0,1.2,0.7,1.2,1.2v29.9c0,0.7-0.7,1.2-1.2,1.2h-1.3
						C340.41,318.15,340.01,317.65,339.71,316.95z"/>
				</g>
				<g>
					<path class="st4" d="M332.01,316.95v-29.9c0-0.7,0.7-1.2,1.2-1.2h1.3c0.7,0,1.2,0.7,1.2,1.2v29.9c0,0.7-0.4,1.2-1.2,1.2h-1.3
						C332.41,318.15,332.01,317.65,332.01,316.95z"/>
				</g>
				<g>
					<path class="st4" d="M324.11,316.95v-29.9c0-0.7,0.7-1.2,1.2-1.2h1.3c0.7,0,1.2,0.7,1.2,1.2v29.9c0,0.7-0.7,1.2-1.2,1.2h-1.3
						C324.61,318.15,324.11,317.65,324.11,316.95z"/>
				</g>
				<g>
					<path class="st4" d="M316.21,316.95v-29.9c0-0.7,0.4-1.2,1.2-1.2h1.3c0.7,0,1.2,0.7,1.2,1.2v29.9c0,0.7-0.7,1.2-1.2,1.2h-1.3
						C316.91,318.15,316.41,317.65,316.21,316.95z"/>
				</g>
				<g>
					<path class="st4" d="M308.31,316.95v-29.9c0-0.7,0.7-1.2,1.2-1.2h1.3c0.7,0,1.2,0.7,1.2,1.2v29.9c0,0.7-0.7,1.2-1.2,1.2h-1.3
						C308.91,318.15,308.51,317.65,308.31,316.95z"/>
				</g>
				<g>
					<path class="st4" d="M300.61,316.95v-29.9c0-0.7,0.7-1.2,1.2-1.2h1.3c0.7,0,1.2,0.7,1.2,1.2v29.9c0,0.7-0.7,1.2-1.2,1.2h-1.3
						C301.01,318.15,300.61,317.65,300.61,316.95z"/>
				</g>
				<g>
					<path class="st4" d="M292.91,316.65v-29.9c0-0.4,0.4-0.9,0.9-0.9h1.3c0.7,0,1.2,0.7,1.2,1.2v29.9c0,0.7-0.7,1.2-1.2,1.2h-1.3
						C293.21,318.15,292.61,317.65,292.91,316.65z"/>
				</g>
				<g>
					<path class="st4" d="M284.81,316.95v-29.9c0-0.7,0.7-1.2,1.2-1.2h1.3c0.7,0,1.2,0.7,1.2,1.2v29.9c0,0.7-0.4,1.2-1.2,1.2h-1.3
						C285.51,318.15,284.91,317.65,284.81,316.95z"/>
				</g>
			</g>
			<g>
				<path class="st5" d="M631.11,324.95v-40.7c0-2.7-2.3-4.8-4.8-4.8h-149.4c-2.7,0-4.8,2.3-4.8,4.8v40.7H631.11z"/>
			</g>
			<g>
				<g>
					<path class="st4" d="M620.81,316.65v-29.9c0-0.4,0.4-0.9,0.9-0.9h1.3c0.7,0,1.2,0.7,1.2,1.2v29.9c0,0.7-0.7,1.2-1.2,1.2h-1.3
						C621.01,318.15,620.51,317.65,620.81,316.65z"/>
				</g>
				<g>
					<path class="st4" d="M612.71,316.95v-29.9c0-0.7,0.7-1.2,1.2-1.2h1.3c0.7,0,1.2,0.7,1.2,1.2v29.9c0,0.7-0.7,1.2-1.2,1.2h-1.3
						C613.31,318.15,612.81,317.65,612.71,316.95z"/>
				</g>
				<g>
					<path class="st4" d="M604.41,317.25v-29.9c0-0.7,0.7-1.2,1.2-1.2h1.3c0.7,0,1.2,0.7,1.2,1.2v29.9c0,0.4-0.4,0.9-0.9,0.9h-1.3
						C605.41,318.15,605.01,317.65,604.41,317.25z"/>
				</g>
				<g>
					<path class="st4" d="M597.01,316.95v-29.9c0-0.7,0.7-1.2,1.2-1.2h1.3c0.7,0,1.2,0.7,1.2,1.2v29.9c0,0.7-0.7,1.2-1.2,1.2h-1.3
						C597.41,318.15,597.01,317.65,597.01,316.95z"/>
				</g>
				<g>
					<path class="st4" d="M589.01,316.95v-29.9c0-0.7,0.7-1.2,1.2-1.2h1.3c0.7,0,1.2,0.7,1.2,1.2v29.9c0,0.7-0.4,1.2-1.2,1.2h-1.3
						C589.61,318.15,589.01,317.65,589.01,316.95z"/>
				</g>
				<g>
					<path class="st4" d="M581.21,316.95v-29.9c0-0.7,0.7-1.2,1.2-1.2h1.3c0.7,0,1.2,0.7,1.2,1.2v29.9c0,0.7-0.7,1.2-1.2,1.2h-1.3
						C581.91,318.15,581.31,317.65,581.21,316.95z"/>
				</g>
				<g>
					<path class="st4" d="M573.31,316.95v-29.9c0-0.7,0.7-1.2,1.2-1.2h1.3c0.7,0,1.2,0.7,1.2,1.2v29.9c0,0.7-0.7,1.2-1.2,1.2h-1.3
						C573.91,318.15,573.51,317.65,573.31,316.95z"/>
				</g>
				<g>
					<path class="st4" d="M565.61,316.95v-29.9c0-0.7,0.7-1.2,1.2-1.2h1.3c0.7,0,1.2,0.7,1.2,1.2v29.9c0,0.7-0.7,1.2-1.2,1.2h-1.3
						C566.11,318.15,565.61,317.65,565.61,316.95z"/>
				</g>
				<g>
					<path class="st4" d="M557.71,316.95v-29.9c0-0.7,0.7-1.2,1.2-1.2h1.3c0.7,0,1.2,0.7,1.2,1.2v29.9c0,0.7-0.7,1.2-1.2,1.2h-1.3
						C558.11,318.15,557.71,317.65,557.71,316.95z"/>
				</g>
				<g>
					<path class="st4" d="M549.81,316.95v-29.9c0-0.7,0.7-1.2,1.2-1.2h1.3c0.7,0,1.2,0.7,1.2,1.2v29.9c0,0.7-0.4,1.2-1.2,1.2h-1.3
						C550.41,318.15,550.01,317.65,549.81,316.95z"/>
				</g>
				<g>
					<path class="st4" d="M541.81,316.95v-29.9c0-0.7,0.4-1.2,1.2-1.2h1.3c0.7,0,1.2,0.7,1.2,1.2v29.9c0,0.7-0.7,1.2-1.2,1.2h-1.3
						C542.51,318.15,542.11,317.65,541.81,316.95z"/>
				</g>
				<g>
					<path class="st4" d="M534.11,316.95v-29.9c0-0.7,0.4-1.2,1.2-1.2h1.3c0.7,0,1.2,0.7,1.2,1.2v29.9c0,0.7-0.7,1.2-1.2,1.2h-1.3
						C534.61,318.15,534.11,317.65,534.11,316.95z"/>
				</g>
				<g>
					<path class="st4" d="M526.31,316.95v-29.9c0-0.7,0.7-1.2,1.2-1.2h1.3c0.7,0,1.2,0.7,1.2,1.2v29.9c0,0.7-0.4,1.2-1.2,1.2h-1.3
						C526.71,318.15,526.31,317.65,526.31,316.95z"/>
				</g>
				<g>
					<path class="st4" d="M518.61,316.65v-29.9c0-0.4,0.4-0.9,0.9-0.9h1.3c0.7,0,1.2,0.7,1.2,1.2v29.9c0,0.7-0.7,1.2-1.2,1.2h-1.3
						C519.01,318.15,518.61,317.65,518.61,316.65z"/>
				</g>
				<g>
					<path class="st4" d="M510.41,316.95v-29.9c0-0.7,0.7-1.2,1.2-1.2h1.3c0.7,0,1.2,0.7,1.2,1.2v29.9c0,0.7-0.4,1.2-1.2,1.2h-1.3
						C511.01,318.15,510.61,317.65,510.41,316.95z"/>
				</g>
				<g>
					<path class="st4" d="M502.71,316.95v-29.9c0-0.7,0.7-1.2,1.2-1.2h1.3c0.7,0,1.2,0.7,1.2,1.2v29.9c0,0.7-0.7,1.2-1.2,1.2h-1.3
						C503.21,318.15,502.71,317.65,502.71,316.95z"/>
				</g>
				<g>
					<path class="st4" d="M494.81,316.95v-29.9c0-0.7,0.7-1.2,1.2-1.2h1.3c0.7,0,1.2,0.7,1.2,1.2v29.9c0,0.7-0.7,1.2-1.2,1.2h-1.3
						C495.21,318.15,494.81,317.65,494.81,316.95z"/>
				</g>
				<g>
					<path class="st4" d="M486.91,316.95v-29.9c0-0.7,0.4-1.2,1.2-1.2h1.3c0.7,0,1.2,0.7,1.2,1.2v29.9c0,0.7-0.7,1.2-1.2,1.2h-1.3
						C487.51,318.15,487.11,317.65,486.91,316.95z"/>
				</g>
				<g>
					<path class="st4" d="M479.01,316.95v-29.9c0-0.7,0.7-1.2,1.2-1.2h1.3c0.7,0,1.2,0.7,1.2,1.2v29.9c0,0.7-0.4,1.2-1.2,1.2h-1.3
						C479.71,318.15,479.21,317.65,479.01,316.95z"/>
				</g>
			</g>
			<g>
				<rect x="456.11" y="324.95" class="st2" width="190.7" height="5.4"/>
			</g>
			<g>
				<path class="st6" d="M258.31,275.15H65.51c-2.9,0-5.8,1.3-7.7,3.6l-18,22.2c-1.3,1.9-2,3.8-2,5.8v18h220.5v-49.4V275.15z"/>
			</g>
			<g>
				<g>
					<polygon class="st2" points="353.51,327.85 353.51,337.75 394.71,337.75 404.91,327.85 					"/>
				</g>
				<g>
					<polygon class="st2" points="361.01,327.85 361.01,337.75 319.81,337.75 309.91,327.85 					"/>
				</g>
			</g>
			<g>
				<rect x="37.61" y="324.95" class="st2" width="220.7" height="5.4"/>
			</g>
			<g>
				<polygon class="st2" points="85.41,327.85 95.51,337.75 129.21,337.75 167.01,337.75 200.71,337.75 210.61,327.85 
					167.01,327.85 129.21,327.85 				"/>
			</g>
			<g>
				<path class="st2" d="M273.01,327.85c-1.3,0-2,1.3-1.3,2.5l3.6,4.9c0.4,0.4,0.9,0.7,1.3,0.7h6.5h6.5c0.7,0,1.2-0.3,1.3-0.7
					l3.6-4.9c0.7-1.2,0-2.5-1.3-2.5h-10.2H273.01z"/>
			</g>
			<g>
				<g>
					<polygon class="st2" points="547.81,327.85 547.81,337.75 588.91,337.75 599.01,327.85 					"/>
				</g>
				<g>
					<polygon class="st2" points="555.21,327.85 555.21,337.75 514.11,337.75 503.91,327.85 					"/>
				</g>
			</g>
			<g>
				<path class="st7" d="M64.31,281.95c0-0.7,0.4-1.2,1.2-1.2h7c0.7,0,1.2,0.4,1.2,1.2v7.4c0,0.7-0.4,1.2-1.2,1.2h-7
					c-0.7,0-1.2-0.4-1.2-1.2V281.95z"/>
			</g>
			<g>
				<path class="st7" d="M75.81,281.95c0-0.7,0.4-1.2,1.2-1.2h7c0.7,0,1.2,0.4,1.2,1.2v7.4c0,0.7-0.4,1.2-1.2,1.2h-7
					c-0.7,0-1.2-0.4-1.2-1.2V281.95z"/>
			</g>
			<g>
				<path class="st7" d="M156.81,281.95c0-0.7,0.4-1.2,1.2-1.2h7c0.7,0,1.2,0.4,1.2,1.2v7.4c0,0.7-0.4,1.2-1.2,1.2h-7
					c-0.7,0-1.2-0.4-1.2-1.2V281.95z"/>
			</g>
			<g>
				<path class="st7" d="M168.61,281.95c0-0.7,0.4-1.2,1.2-1.2h7c0.7,0,1.2,0.4,1.2,1.2v7.4c0,0.7-0.4,1.2-1.2,1.2h-7
					c-0.7,0-1.2-0.4-1.2-1.2V281.95z"/>
			</g>
			<g>
				<path class="st8" d="M112.31,282.15h-10.9c-0.3,0-0.4-0.3-0.4-0.4v-0.4c0-0.3,0.3-0.4,0.4-0.4h10.9c0.3,0,0.4,0.3,0.4,0.4v0.4
					C112.71,281.65,112.41,281.95,112.31,282.15z"/>
			</g>
			<g>
				<path class="st8" d="M112.31,284.85h-10.9c-0.3,0-0.4-0.3-0.4-0.4v-0.4c0-0.3,0.3-0.4,0.4-0.4h10.9c0.3,0,0.4,0.3,0.4,0.4v0.4
					C112.71,284.55,112.41,284.85,112.31,284.85z"/>
			</g>
			<g>
				<path class="st8" d="M112.31,287.75h-10.9c-0.3,0-0.4-0.3-0.4-0.4v-0.4c0-0.3,0.3-0.4,0.4-0.4h10.9c0.3,0,0.4,0.3,0.4,0.4v0.4
					C112.71,287.65,112.41,287.75,112.31,287.75z"/>
			</g>
			<g>
				<path class="st8" d="M112.31,290.85h-10.9c-0.3,0-0.4-0.3-0.4-0.4v-0.4c0-0.3,0.3-0.4,0.4-0.4h10.9c0.3,0,0.4,0.3,0.4,0.4v0.4
					C112.71,290.55,112.41,290.55,112.31,290.85z"/>
			</g>
			<g>
				<path class="st8" d="M126.01,282.15h-10.9c-0.3,0-0.4-0.3-0.4-0.4v-0.4c0-0.3,0.3-0.4,0.4-0.4h10.9c0.3,0,0.4,0.3,0.4,0.4v0.4
					C126.51,281.65,126.51,281.95,126.01,282.15z"/>
			</g>
			<g>
				<path class="st8" d="M126.01,284.85h-10.9c-0.3,0-0.4-0.3-0.4-0.4v-0.4c0-0.3,0.3-0.4,0.4-0.4h10.9c0.3,0,0.4,0.3,0.4,0.4v0.4
					C126.51,284.55,126.51,284.85,126.01,284.85z"/>
			</g>
			<g>
				<path class="st8" d="M126.01,287.75h-10.9c-0.3,0-0.4-0.3-0.4-0.4v-0.4c0-0.3,0.3-0.4,0.4-0.4h10.9c0.3,0,0.4,0.3,0.4,0.4v0.4
					C126.51,287.65,126.51,287.75,126.01,287.75z"/>
			</g>
			<g>
				<path class="st8" d="M126.01,290.85h-10.9c-0.3,0-0.4-0.3-0.4-0.4v-0.4c0-0.3,0.3-0.4,0.4-0.4h10.9c0.3,0,0.4,0.3,0.4,0.4v0.4
					C126.51,290.55,126.51,290.55,126.01,290.85z"/>
			</g>
			<g>
				<path class="st8" d="M219.21,282.15h-10.9c-0.3,0-0.4-0.3-0.4-0.4v-0.4c0-0.3,0.3-0.4,0.4-0.4h10.9c0.3,0,0.4,0.3,0.4,0.4v0.4
					C219.61,281.65,219.61,281.95,219.21,282.15z"/>
			</g>
			<g>
				<path class="st8" d="M219.21,284.85h-10.9c-0.3,0-0.4-0.3-0.4-0.4v-0.4c0-0.3,0.3-0.4,0.4-0.4h10.9c0.3,0,0.4,0.3,0.4,0.4v0.4
					C219.61,284.55,219.61,284.85,219.21,284.85z"/>
			</g>
			<g>
				<path class="st8" d="M219.21,287.75h-10.9c-0.3,0-0.4-0.3-0.4-0.4v-0.4c0-0.3,0.3-0.4,0.4-0.4h10.9c0.3,0,0.4,0.3,0.4,0.4v0.4
					C219.61,287.65,219.61,287.75,219.21,287.75z"/>
			</g>
			<g>
				<path class="st8" d="M219.21,290.85h-10.9c-0.3,0-0.4-0.3-0.4-0.4v-0.4c0-0.3,0.3-0.4,0.4-0.4h10.9c0.3,0,0.4,0.3,0.4,0.4v0.4
					C219.61,290.55,219.61,290.55,219.21,290.85z"/>
			</g>
			<g>
				<path class="st8" d="M233.21,282.15h-10.9c-0.3,0-0.4-0.3-0.4-0.4v-0.4c0-0.3,0.3-0.4,0.4-0.4h10.9c0.3,0,0.4,0.3,0.4,0.4v0.4
					C233.71,281.65,233.41,281.95,233.21,282.15z"/>
			</g>
			<g>
				<path class="st8" d="M233.21,284.85h-10.9c-0.3,0-0.4-0.3-0.4-0.4v-0.4c0-0.3,0.3-0.4,0.4-0.4h10.9c0.3,0,0.4,0.3,0.4,0.4v0.4
					C233.71,284.55,233.41,284.85,233.21,284.85z"/>
			</g>
			<g>
				<path class="st8" d="M233.21,287.75h-10.9c-0.3,0-0.4-0.3-0.4-0.4v-0.4c0-0.3,0.3-0.4,0.4-0.4h10.9c0.3,0,0.4,0.3,0.4,0.4v0.4
					C233.71,287.65,233.41,287.75,233.21,287.75z"/>
			</g>
			<g>
				<path class="st8" d="M233.21,290.85h-10.9c-0.3,0-0.4-0.3-0.4-0.4v-0.4c0-0.3,0.3-0.4,0.4-0.4h10.9c0.3,0,0.4,0.3,0.4,0.4v0.4
					C233.71,290.55,233.41,290.55,233.21,290.85z"/>
			</g>
			<g>
				<rect x="99.21" y="296.15" class="st8" width="1.3" height="28.7"/>
			</g>
			<g>
				<rect x="86.31" y="296.15" class="st8" width="1.3" height="28.7"/>
			</g>
			<g>
				<rect x="249.01" y="296.15" class="st8" width="1.3" height="28.7"/>
			</g>
			<g>
				<rect x="236.11" y="296.15" class="st8" width="1.3" height="28.7"/>
			</g>
		</g>
	</g>
	<path class="st9" d="M-2.19,344.85L-2.19,344.85c0-0.7,0.4-1.3,1.4-1.3h640.1c0.7,0,1.4,0.4,1.4,1.3l0,0c0,0.7-0.4,1.3-1.4,1.3
		H-0.49C-1.49,346.15-2.19,345.45-2.19,344.85z"/>
</g>
<g>
	<path class="st10" d="M694.23,380.7H311.16c-1.03,0-1.65-0.82-1.65-1.75l0,0c0-1.03,0.82-1.75,1.65-1.75h383.07
		c1.03,0,1.65,0.82,1.65,1.75l0,0C695.88,379.87,695.26,380.7,694.23,380.7z"/>
	<g>
		<g>
			<rect x="419.93" y="340.01" class="st11" width="280.38" height="18.33"/>
		</g>
		<g>
			<path class="st12" d="M345.15,364.42c-2.88,0-5.15-2.27-5.15-5.15v-42.75c0-0.82,0.21-1.44,0.41-2.27l15.35-32.86
				c0.82-1.85,2.68-2.88,4.74-2.88h54.18c2.88,0,5.15,2.27,5.15,5.15v80.76H345.15L345.15,364.42z"/>
		</g>
		<g>
			<path class="st13" d="M351.33,366.79c0-20.6,5.97-25.54,20.6-25.54c14.94,0,20.81,5.15,20.81,25.54"/>
		</g>
		<g>
			<path class="st13" d="M429.3,340.01v-67.88c0-4.33,3.5-7.83,7.83-7.83h248.03c4.33,0,7.83,3.5,7.83,7.83v67.88H429.3z"/>
		</g>
		<g>
			<path class="st14" d="M677.03,328.58h3.09c0.62,0,1.24-0.62,1.24-1.24v-50.37c0-0.62-0.62-1.24-1.24-1.24h-3.09
				c-0.62,0-1.24,0.62-1.24,1.24v50.37C675.48,327.96,676,328.58,677.03,328.58"/>
		</g>
		<g>
			<path class="st14" d="M663.74,328.58h3.09c0.62,0,1.24-0.62,1.24-1.24v-50.37c0-0.62-0.62-1.24-1.24-1.24h-3.09
				c-0.62,0-1.24,0.62-1.24,1.24v50.37C662.5,327.96,663.12,328.58,663.74,328.58"/>
		</g>
		<g>
			<path class="st14" d="M650.66,328.58h3.09c0.62,0,1.24-0.62,1.24-1.24v-50.37c0-0.62-0.62-1.24-1.24-1.24h-3.09
				c-0.62,0-1.24,0.62-1.24,1.24v50.37C649.52,327.96,650.04,328.58,650.66,328.58"/>
		</g>
		<g>
			<path class="st14" d="M637.68,328.58h3.09c0.62,0,1.24-0.62,1.24-1.24v-50.37c0-0.62-0.62-1.24-1.24-1.24h-3.09
				c-0.62,0-1.24,0.62-1.24,1.24v50.37C636.44,327.96,637.06,328.58,637.68,328.58"/>
		</g>
		<g>
			<path class="st14" d="M624.7,328.58h3.09c0.62,0,1.24-0.62,1.24-1.24v-50.37c0-0.62-0.62-1.24-1.24-1.24h-3.09
				c-0.62,0-1.24,0.62-1.24,1.24v50.37C623.46,327.96,623.98,328.58,624.7,328.58"/>
		</g>
		<g>
			<path class="st14" d="M611.72,328.58h3.09c0.62,0,1.24-0.62,1.24-1.24v-50.37c0-0.62-0.62-1.24-1.24-1.24h-3.09
				c-0.62,0-1.24,0.62-1.24,1.24v50.37C610.49,327.96,610.9,328.58,611.72,328.58"/>
		</g>
		<g>
			<path class="st14" d="M598.74,328.58h3.09c0.62,0,1.24-0.62,1.24-1.24v-50.37c0-0.62-0.62-1.24-1.24-1.24h-3.09
				c-0.62,0-1.24,0.62-1.24,1.24v50.37C597.51,327.96,597.92,328.58,598.74,328.58"/>
		</g>
		<g>
			<path class="st14" d="M585.56,328.58h3.09c0.62,0,1.24-0.62,1.24-1.24v-50.37c0-0.62-0.62-1.24-1.24-1.24h-3.09
				c-0.62,0-1.24,0.62-1.24,1.24v50.37C584.22,327.96,584.84,328.58,585.56,328.58"/>
		</g>
		<g>
			<path class="st14" d="M572.48,328.58h3.09c0.62,0,1.24-0.62,1.24-1.24v-50.37c0-0.62-0.62-1.24-1.24-1.24h-3.09
				c-0.62,0-1.24,0.62-1.24,1.24v50.37C571.24,327.96,571.86,328.58,572.48,328.58"/>
		</g>
		<g>
			<path class="st14" d="M559.6,328.58h3.09c0.62,0,1.24-0.62,1.24-1.24v-50.37c0-0.62-0.62-1.24-1.24-1.24h-3.09
				c-0.62,0-1.24,0.62-1.24,1.24v50.37C558.37,327.96,558.88,328.58,559.6,328.58"/>
		</g>
		<g>
			<path class="st14" d="M546.52,328.58h3.09c0.62,0,1.24-0.62,1.24-1.24v-50.37c0-0.62-0.62-1.24-1.24-1.24h-3.09
				c-0.62,0-1.24,0.62-1.24,1.24v50.37C545.28,327.96,545.9,328.58,546.52,328.58"/>
		</g>
		<g>
			<path class="st14" d="M533.54,328.58h3.09c0.62,0,1.24-0.62,1.24-1.24v-50.37c0-0.62-0.62-1.24-1.24-1.24h-3.09
				c-0.62,0-1.24,0.62-1.24,1.24v50.37C532.31,327.96,532.72,328.58,533.54,328.58"/>
		</g>
		<g>
			<path class="st14" d="M520.56,328.58h3.09c0.62,0,1.24-0.62,1.24-1.24v-50.37c0-0.62-0.62-1.24-1.24-1.24h-3.09
				c-0.62,0-1.24,0.62-1.24,1.24v50.37C519.22,327.96,519.64,328.58,520.56,328.58"/>
		</g>
		<g>
			<path class="st14" d="M507.58,328.58h3.09c0.62,0,1.24-0.62,1.24-1.24v-50.37c0-0.62-0.62-1.24-1.24-1.24h-3.09
				c-0.62,0-1.24,0.62-1.24,1.24v50.37C506.14,327.96,506.76,328.58,507.58,328.58"/>
		</g>
		<g>
			<path class="st14" d="M494.3,328.58h3.09c0.62,0,1.24-0.62,1.24-1.24v-50.37c0-0.62-0.62-1.24-1.24-1.24h-3.09
				c-0.62,0-1.24,0.62-1.24,1.24v50.37C493.06,327.96,493.78,328.58,494.3,328.58"/>
		</g>
		<g>
			<path class="st14" d="M481.32,328.58h3.09c0.62,0,1.24-0.62,1.24-1.24v-50.37c0-0.62-0.62-1.24-1.24-1.24h-3.09
				c-0.62,0-1.24,0.62-1.24,1.24v50.37C480.08,327.96,480.7,328.58,481.32,328.58"/>
		</g>
		<g>
			<path class="st14" d="M468.24,328.58h3.09c0.62,0,1.24-0.62,1.24-1.24v-50.37c0-0.62-0.62-1.24-1.24-1.24h-3.09
				c-0.62,0-1.24,0.62-1.24,1.24v50.37C467.1,327.96,467.72,328.58,468.24,328.58"/>
		</g>
		<g>
			<path class="st14" d="M455.36,328.58h3.09c0.62,0,1.24-0.62,1.24-1.24v-50.37c0-0.62-0.62-1.24-1.24-1.24h-3.09
				c-0.62,0-1.24,0.62-1.24,1.24v50.37C454.13,327.96,454.74,328.58,455.36,328.58"/>
		</g>
		<g>
			<path class="st14" d="M442.28,328.58h3.09c0.62,0,1.24-0.62,1.24-1.24v-50.37c0-0.62-0.62-1.24-1.24-1.24h-3.09
				c-0.62,0-1.24,0.62-1.24,1.24v50.37C441.15,327.96,441.56,328.58,442.28,328.58"/>
		</g>
		<g>
			<path class="st15" d="M389.34,299.74c0,0.82,0.82,1.65,1.65,1.65h10.3c0.82,0,1.65-0.82,1.65-1.65v-11.23
				c0-0.82-0.82-1.65-1.65-1.65h-10.3c-0.82,0-1.65,0.82-1.65,1.65V299.74z"/>
		</g>
		<g>
			<path class="st16" d="M644.99,362.26c0,9.06,7.21,16.27,16.27,16.27s16.27-7.21,16.27-16.27s-7.21-16.27-16.27-16.27
				C652.31,345.98,644.99,353.09,644.99,362.26"/>
		</g>
		<g>
			<path class="st17" d="M652.2,362.26c0,5.15,4.12,9.37,9.37,9.37c5.15,0,9.37-4.12,9.37-9.37c0-5.15-4.12-9.37-9.37-9.37
				C656.22,352.89,652.2,357.01,652.2,362.26"/>
		</g>
		<g>
			<path class="st16" d="M607.6,362.26c0,9.06,7.21,16.27,16.27,16.27s16.27-7.21,16.27-16.27s-7.21-16.27-16.27-16.27
				S607.6,353.09,607.6,362.26"/>
		</g>
		<g>
			<path class="st17" d="M614.61,362.26c0,5.15,4.12,9.37,9.37,9.37c5.15,0,9.37-4.12,9.37-9.37c0-5.15-4.12-9.37-9.37-9.37
				S614.61,357.01,614.61,362.26"/>
		</g>
		<g>
			<path class="st16" d="M471.22,362.26c0,9.06,7.21,16.27,16.27,16.27s16.27-7.21,16.27-16.27s-7.21-16.27-16.27-16.27
				S471.22,353.09,471.22,362.26"/>
		</g>
		<g>
			<path class="st17" d="M478.23,362.26c0,5.15,4.12,9.37,9.37,9.37c5.15,0,9.37-4.12,9.37-9.37c0-5.15-4.12-9.37-9.37-9.37
				C482.35,352.89,478.23,357.01,478.23,362.26"/>
		</g>
		<g>
			<path class="st16" d="M433.63,362.26c0,9.06,7.21,16.27,16.27,16.27s16.27-7.21,16.27-16.27s-7.21-16.27-16.27-16.27
				C441.15,345.98,433.63,353.09,433.63,362.26"/>
		</g>
		<g>
			<path class="st17" d="M440.94,362.26c0,5.15,4.12,9.37,9.37,9.37c5.15,0,9.37-4.12,9.37-9.37c0-5.15-4.12-9.37-9.37-9.37
				S440.94,357.01,440.94,362.26"/>
		</g>
		<g>
			<path class="st16" d="M355.65,362.26c0,9.06,7.21,16.27,16.27,16.27s16.27-7.21,16.27-16.27s-7.21-16.27-16.27-16.27
				S355.65,353.09,355.65,362.26"/>
		</g>
		<g>
			<path class="st17" d="M362.86,362.26c0,5.15,4.12,9.37,9.37,9.37c5.15,0,9.37-4.12,9.37-9.37c0-5.15-4.12-9.37-9.37-9.37
				C367.09,352.89,362.86,357.01,362.86,362.26"/>
		</g>
		<g>
			<path class="st17" d="M562.49,369.57h34.09c1.65,0,2.88-1.24,2.88-2.88v-17c0-1.65-1.24-2.88-2.88-2.88h-34.09
				c-1.65,0-2.88,1.24-2.88,2.88v17C559.6,368.34,560.84,369.57,562.49,369.57"/>
		</g>
		<g>
			<path class="st15" d="M350.5,322.5h29.77c1.03,0,1.85-0.82,1.85-1.85v-31.73c0-1.03-0.82-1.85-1.85-1.85h-17.72
				c-0.82,0-1.44,0.41-1.85,1.03l-12.15,25.54c-0.21,0.21-0.21,0.62-0.21,0.82v6.18C348.65,321.68,349.58,322.5,350.5,322.5"/>
		</g>
	</g>
</g>
<g>
	<path class="st18" d="M301.35,70.05c0-0.9-0.5-1.9-1.4-2.4l0,0l-6.4-3.7c-1-0.6-2.2-0.8-3.4-0.7h-52.2l-10.5-9.7h-6.4l7.7,17
		c1,2.4,3.4,3.9,6.1,3.9h56.6c2.9,0.2,5.9-0.6,8.5-2c0.2-0.1,0.2-0.2,0.3-0.2l0,0l0,0C300.95,71.65,301.35,70.85,301.35,70.05z"/>
	<path class="st19" d="M262.95,76.25v3.3c-1.7,0.1-3.4-0.2-5-0.7v-1.9C259.55,76.55,261.35,76.25,262.95,76.25z"/>
	<path class="st18" d="M262.25,80.15h5.4c0.9,0,1.6-0.4,1.6-1.2v-1.9c0-0.9-0.5-1.2-1.6-1.2h-5.4V80.15z"/>
	<path class="st20" d="M282.75,67.45c0,0.4,0.4,0.7,0.8,0.6h0.6c0.4,0,0.7-0.2,0.8-0.6v-1c-0.1-0.4-0.4-0.7-0.8-0.6h-0.6
		c-0.4,0-0.7,0.2-0.8,0.6V67.45z"/>
	<path class="st20" d="M286.35,69.35c0.1,0.6,0.5,0.9,1,0.9l0,0h0.8c0.6,0.1,1-0.3,1-0.9v-3.1c-0.1-0.6-0.6-0.9-1-0.9h-0.8
		c-0.6-0.1-1,0.3-1,0.9V69.35z"/>
	<path class="st20" d="M294.55,64.45h-2c-0.6,0.1-0.9,0.6-0.9,1v0.8c-0.1,0.6,0.3,1,0.9,1h7.2"/>
	<path class="st20" d="M242.25,69.35c0.1,0.6,0.6,0.9,1,0.9h0.8c0.6,0.1,1-0.3,1-0.9v-3.1c-0.1-0.6-0.6-0.9-1-0.9h-0.8
		c-0.6-0.1-1,0.3-1,0.9V69.35z"/>
	<path class="st20" d="M279.05,67.45c0,0.4,0.4,0.7,0.8,0.6h0.6c0.4,0,0.7-0.2,0.8-0.6v-1c-0.1-0.4-0.4-0.7-0.8-0.6h-0.6
		c-0.4,0-0.7,0.2-0.8,0.6V67.45z"/>
	<path class="st20" d="M275.55,67.45c0,0.4,0.4,0.7,0.8,0.6h0.6c0.4,0,0.7-0.2,0.8-0.6v-1c-0.1-0.4-0.4-0.7-0.8-0.6h-0.6
		c-0.4,0-0.7,0.2-0.8,0.6V67.45z"/>
	<path class="st20" d="M271.85,67.45c0.1,0.4,0.4,0.7,0.8,0.6h0.6c0.4,0,0.7-0.2,0.8-0.6v-1c-0.1-0.4-0.4-0.7-0.8-0.6h-0.6
		c-0.4,0-0.7,0.2-0.8,0.6V67.45z"/>
	<path class="st20" d="M268.25,67.45c0.1,0.4,0.4,0.7,0.8,0.6h0.6c0.4,0,0.7-0.2,0.8-0.6v-1c0-0.4-0.4-0.7-0.8-0.6h-0.6
		c-0.4,0-0.7,0.2-0.8,0.6V67.45z"/>
	<path class="st20" d="M264.75,67.45c0.1,0.4,0.4,0.7,0.8,0.6h0.6c0.4,0,0.7-0.2,0.8-0.6v-1c0-0.4-0.4-0.7-0.8-0.6h-0.6
		c-0.4,0-0.7,0.2-0.8,0.6V67.45z"/>
	<path class="st20" d="M261.05,67.45c0,0.4,0.4,0.7,0.8,0.6h0.6c0.4,0,0.7-0.2,0.8-0.6v-1c-0.1-0.4-0.4-0.7-0.8-0.6h-0.6
		c-0.4,0-0.7,0.2-0.8,0.6V67.45z"/>
	<path class="st20" d="M257.45,67.45c0,0.4,0.4,0.7,0.8,0.6h0.6c0.4,0,0.7-0.2,0.8-0.6v-1c0-0.4-0.4-0.7-0.8-0.7l0,0h-0.6
		c-0.4,0-0.7,0.2-0.8,0.6V67.45z"/>
	<path class="st20" d="M253.95,67.45c0,0.4,0.4,0.7,0.8,0.6h0.6c0.4,0,0.7-0.2,0.8-0.6v-1c-0.1-0.4-0.4-0.7-0.8-0.6h-0.6
		c-0.4,0-0.7,0.2-0.8,0.6V67.45z"/>
	<path class="st20" d="M250.25,67.45c0.1,0.4,0.4,0.7,0.8,0.6h0.6c0.4,0,0.7-0.2,0.8-0.6v-1c-0.1-0.4-0.4-0.7-0.8-0.6h-0.6
		c-0.4,0-0.7,0.2-0.8,0.6V67.45z"/>
	<path class="st20" d="M246.65,67.45c0.1,0.4,0.4,0.7,0.8,0.6h0.6c0.4,0,0.7-0.2,0.8-0.6v-1c0-0.4-0.4-0.7-0.8-0.6h-0.6
		c-0.4,0-0.7,0.2-0.8,0.6V67.45z"/>
	<path class="st20" d="M265.15,72.85h-9.2c-0.6,0-1.2,0.1-1.8,0.2l-10.9,3.1c-0.2,0.1-0.4,0.3-0.4,0.6c0.1,0.2,0.2,0.4,0.5,0.4h21.8
		c1.2,0.1,2.3-0.8,2.4-2.1c0.1-1.2-0.8-2.3-2.1-2.4C265.45,72.85,265.25,72.85,265.15,72.85z"/>
	<path class="st20" d="M235.05,66.95h-3.7c-0.4,0-0.7,0.1-1.1,0.2l-6.6,2c-0.2,0-0.2,0.2-0.2,0.3c0,0.2,0.2,0.2,0.3,0.2l0,0h11.4
		c0.7,0,1.3-0.6,1.3-1.3C236.35,67.55,235.75,66.95,235.05,66.95z"/>
	<polygon class="st20" points="237.95,63.15 225.55,63.15 221.05,53.45 227.45,53.45 	"/>
</g>
<path class="st21" d="M464.37,98.89L464.37,98.89c0,0.86,0.43,1.72,1.51,1.94v8.17c-1.29,0.43-1.94,1.72-1.94,2.8h-2.15l0,0
	c-0.43,0-1.29,0.43-1.29,1.29v12.47h16.99v-12.69l0,0l0,0c0-0.43-0.43-0.86-0.86-0.86h-2.58c0-1.51-0.43-2.58-1.94-2.8v-8.17h0.22
	c0.86-0.22,1.51-0.86,1.51-1.72h92.46v101.49c-3.87,0.22-6.88,2.15-7.31,6.45h-6.24v-0.22c0-1.72-1.29-3.01-2.8-3.66v-25.37l0,0
	c0-1.94-1.72-3.66-3.87-3.66h-36.55l0,0c-1.94,0-3.66,1.72-3.66,3.87v25.16c-1.51,0.43-2.58,1.94-2.58,3.66v0.22h-0.22
	c-23.65,0-27.09,17.2-27.09,17.2h246.57v-17.2H688v-9.46l0,0c0-0.43-0.43-0.86-1.29-0.86h-10.75l0,0c-0.43,0-1.29,0.43-1.29,1.29
	v9.25h-2.58v-9.46l0,0c0-0.43-0.43-0.86-1.29-0.86h-10.75l0,0c-0.43,0-1.29,0.43-1.29,1.29v9.25h-1.94v-9.46
	c0-0.43-0.43-0.86-1.29-0.86h-11.18l0,0c-0.43,0-1.29,0.43-1.29,1.29v9.25h-10.11c-0.43-3.66-3.87-6.45-7.74-6.45V99.32h14.62v9.89
	h12.47l0,0c1.94,0,3.44-1.72,3.01-3.66v-6.24h8.82V89.21h-2.8l-89.45-42.36v-2.58c0-1.51-4.52-1.51-4.52,0v1.94L452.33,88.13h-3.87
	l0,0c-3.87,0-7.31,3.44-7.31,7.31v3.01L464.37,98.89 M620.7,77.38c0,0-0.22-0.22-0.43-0.22l0,0c-0.86,0-1.72,0.86-1.51,1.72v9.03
	l-44.94-39.99l86.01,40.64h-22.79v-3.87c0,0-0.22-7.31-9.03-7.31H620.7 M618.55,101.9v17.42h-44.08L618.55,101.9z M574.9,123.4h44.3
	v76.55c-4.3,0-7.96,1.94-8.17,6.45h-27.95c-0.86-3.66-3.87-6.45-7.96-6.45h-0.22V123.4L574.9,123.4z M574.9,98.89h43.65l-43.65,17.2
	V98.89z M572.75,49l44.51,39.35h-44.51V49z M528.88,189.84h-2.8v-7.31h2.8V189.84z M543.5,202.53c-1.72,0.43-2.8,1.94-2.8,3.66v0.22
	h-24.3v-0.22c0-1.72-1.29-3.44-2.8-3.66v-21.5h10.54l0,0c0,0.43,0.43,1.29,1.29,1.29v7.31c-1.29,0.22-1.72,1.51-1.72,2.58h-2.15
	c-0.43,0-0.86,0.43-0.86,0.86v3.87h14.84v-3.87c0-0.43-0.43-0.86-0.86-0.86h-2.15c0-1.29-0.43-2.15-1.72-2.58v-7.31l0,0
	c0.86,0,1.51-0.43,1.51-1.51h11.4L543.5,202.53L543.5,202.53z M492.54,88.35l76.12-39.78v39.78H492.54z M467.38,100.61h3.01v8.17
	h-3.01V100.61z M456.2,88.35l108.8-38.92l-74.61,38.92H456.2z"/>
<g>
	<path class="st22" d="M536.49,131.32h-36.64c0-4.66,1.6-6.47,7.93-6.47h5.7c0-6.67,2.29-9.39,11.47-9.39
		c7.16,0,8.83,2.09,8.83,7.23c8.48,0,10.57,2.5,10.57,8.62h-13.56"/>
</g>
<g>
	<path class="st22" d="M379.76,86.45c5.9,0,7.4,1.6,7.4,6.1h8.2c8.4,0,10.5,2.4,10.5,8.6h-81c0-4.3,1.5-6.1,7.4-6.1
		c0-6.2,2.1-8.6,10.5-8.6h5.9c0-7.7,2.6-10.9,13.3-10.9s13.3,3.1,13.3,10.9H379.76z"/>
</g>
<g>
	<path class="st22" d="M108.64,88.51c7.45,0,9.23,2.02,9.23,7.53h10.21c10.45,0,13.2,3.08,13.2,10.69H39.96
		c0-5.35,1.78-7.53,9.23-7.53c0-7.69,2.59-10.69,13.2-10.69h7.45c0-9.64,3.32-13.61,16.68-13.61s16.68,3.81,16.68,13.61H108.64z"/>
</g>
<g>
	<g>
		<g>
			<g>
				<g>
					<defs>
						<polygon id="SVGID_9_" points="534.55,310.21 534.55,297.49 537.94,297.49 542.25,306.99 546.49,297.49 549.74,297.49 
							549.74,310.21 546.94,310.21 546.94,302.81 543.71,310.21 540.73,310.21 537.45,302.84 537.45,310.21 						"/>
					</defs>
					<use xlink:href="#SVGID_9_"  style="overflow:visible;fill:#03253D;"/>
					<clipPath id="SVGID_10_">
						<use xlink:href="#SVGID_9_"  style="overflow:visible;"/>
					</clipPath>
					<g class="st23">
						<defs>
							<rect id="SVGID_11_" x="96.61" y="262.45" width="563.42" height="848.9"/>
						</defs>
						<use xlink:href="#SVGID_11_"  style="overflow:visible;fill:#03253D;"/>
						<clipPath id="SVGID_12_">
							<use xlink:href="#SVGID_11_"  style="overflow:visible;"/>
						</clipPath>
						<rect x="529.85" y="292.79" class="st24" width="24.59" height="22.11"/>
					</g>
				</g>
				<g>
					<defs>
						<path id="SVGID_13_" d="M561.01,305.28l-2.34-5.4l-2.29,5.4H561.01z M554.29,310.21h-3.29l5.66-12.73h4.06l5.7,12.73h-3.25
							l-1.12-2.53h-6.66L554.29,310.21z"/>
					</defs>
					<use xlink:href="#SVGID_13_"  style="overflow:visible;fill:#03253D;"/>
					<clipPath id="SVGID_14_">
						<use xlink:href="#SVGID_13_"  style="overflow:visible;"/>
					</clipPath>
					<g class="st25">
						<defs>
							<rect id="SVGID_15_" x="96.61" y="262.45" width="563.42" height="848.9"/>
						</defs>
						<use xlink:href="#SVGID_15_"  style="overflow:visible;fill:#03253D;"/>
						<clipPath id="SVGID_16_">
							<use xlink:href="#SVGID_15_"  style="overflow:visible;"/>
						</clipPath>
						<rect x="546.3" y="292.79" class="st26" width="24.81" height="22.12"/>
					</g>
				</g>
				<g>
					<defs>
						<polygon id="SVGID_17_" points="567.72,310.21 567.72,297.49 579.9,297.49 579.9,300.03 570.66,300.03 570.66,302.55 
							578.59,302.55 578.59,305.04 570.66,305.04 570.66,307.66 579.93,307.66 579.93,310.21 						"/>
					</defs>
					<use xlink:href="#SVGID_17_"  style="overflow:visible;fill:#03253D;"/>
					<clipPath id="SVGID_18_">
						<use xlink:href="#SVGID_17_"  style="overflow:visible;"/>
					</clipPath>
					<g class="st27">
						<defs>
							<rect id="SVGID_19_" x="96.61" y="262.45" width="563.42" height="848.9"/>
						</defs>
						<use xlink:href="#SVGID_19_"  style="overflow:visible;fill:#03253D;"/>
						<clipPath id="SVGID_20_">
							<use xlink:href="#SVGID_19_"  style="overflow:visible;"/>
						</clipPath>
						<rect x="563.03" y="292.79" class="st28" width="21.6" height="22.11"/>
					</g>
				</g>
				<g>
					<defs>
						<path id="SVGID_21_" d="M585.28,303.32h6.41v-3.3h-6.41V303.32z M582.3,310.21v-12.72h10.19c1.37,0,2.16,0.78,2.16,2.13v4.28
							c0,0.98-0.88,1.87-2.57,1.87c-0.09,0-0.19,0-0.29,0l2.97,4.44h-3.28l-2.81-4.35h-3.38v4.35H582.3z"/>
					</defs>
					<use xlink:href="#SVGID_21_"  style="overflow:visible;fill:#03253D;"/>
					<clipPath id="SVGID_22_">
						<use xlink:href="#SVGID_21_"  style="overflow:visible;"/>
					</clipPath>
					<g class="st29">
						<defs>
							<rect id="SVGID_23_" x="96.61" y="262.45" width="563.42" height="848.9"/>
						</defs>
						<use xlink:href="#SVGID_23_"  style="overflow:visible;fill:#03253D;"/>
						<clipPath id="SVGID_24_">
							<use xlink:href="#SVGID_23_"  style="overflow:visible;"/>
						</clipPath>
						<rect x="577.6" y="292.79" class="st30" width="21.84" height="22.11"/>
					</g>
				</g>
				<g>
					<defs>
						<path id="SVGID_25_" d="M600.01,310.22h-1.01c-1.32,0-1.95-0.76-1.95-1.87v-1.66h2.96v0.99h6.3v-2.61c0,0-6.07,0-7.22,0
							c-1.16,0-1.99-0.77-1.99-1.84v-3.78c0-1.14,0.9-1.95,2-1.95s8.26,0,8.26,0c1.12,0,1.89,0.83,1.89,2.03c0,1.2,0,1.52,0,1.52
							h-2.94v-1.01h-6.3v2.51h7.21c1.06,0,2.04,0.7,2.04,2.05v3.64c0,1.24-0.68,1.99-1.98,1.99
							C606,310.22,600.01,310.22,600.01,310.22z"/>
					</defs>
					<use xlink:href="#SVGID_25_"  style="overflow:visible;fill:#03253D;"/>
					<clipPath id="SVGID_26_">
						<use xlink:href="#SVGID_25_"  style="overflow:visible;"/>
					</clipPath>
					<g class="st31">
						<defs>
							<rect id="SVGID_27_" x="96.61" y="262.45" width="563.42" height="848.9"/>
						</defs>
						<use xlink:href="#SVGID_27_"  style="overflow:visible;fill:#03253D;"/>
						<clipPath id="SVGID_28_">
							<use xlink:href="#SVGID_27_"  style="overflow:visible;"/>
						</clipPath>
						<rect x="592.36" y="292.8" class="st32" width="21.6" height="22.11"/>
					</g>
				</g>
				<polygon class="st16" points="612.11,310.22 612.11,297.49 615.13,297.49 615.13,302.58 620.89,297.49 624.99,297.49 
					618.12,303.4 625.24,310.22 621,310.22 615.13,304.43 615.13,310.22 				"/>
				<g>
					<defs>
						<path id="SVGID_29_" d="M522.66,315.59c0,1.76-1.49,3.19-3.33,3.19h-20.99c-1.84,0-3.33-1.43-3.33-3.19v-21.61
							c0-1.77,1.49-3.19,3.33-3.19h20.99c1.84,0,3.33,1.42,3.33,3.19V315.59z"/>
					</defs>
					<clipPath id="SVGID_30_">
						<use xlink:href="#SVGID_29_"  style="overflow:visible;"/>
					</clipPath>
					<g class="st33">
						<defs>
							<rect id="SVGID_31_" x="96.61" y="262.45" width="563.42" height="848.9"/>
						</defs>
						<clipPath id="SVGID_32_">
							<use xlink:href="#SVGID_31_"  style="overflow:visible;"/>
						</clipPath>
						<rect x="490.3" y="286.09" class="st34" width="37.05" height="37.38"/>
					</g>
				</g>
				<g>
					<defs>
						<polygon id="SVGID_33_" points="513.23,304.05 518.69,297.49 518.68,297.47 510.79,301.11 508.84,292.93 508.81,292.93 
							506.87,301.11 498.98,297.47 498.96,297.49 504.42,304.05 496.53,307.7 496.53,307.72 505.29,307.72 503.34,315.91 
							503.37,315.92 508.83,309.36 514.29,315.92 514.31,315.9 512.37,307.72 521.11,307.72 521.12,307.7 						"/>
					</defs>
					<clipPath id="SVGID_34_">
						<use xlink:href="#SVGID_33_"  style="overflow:visible;"/>
					</clipPath>
					<g class="st35">
						<defs>
							<rect id="SVGID_35_" x="96.61" y="262.45" width="563.42" height="848.9"/>
						</defs>
						<clipPath id="SVGID_36_">
							<use xlink:href="#SVGID_35_"  style="overflow:visible;"/>
						</clipPath>
						<rect x="491.84" y="288.24" class="st36" width="33.98" height="32.38"/>
					</g>
				</g>
			</g>
		</g>
	</g>
</g>
<g>
	<g>
		<g>
			<g>
				<g>
					<path class="st37" d="M192.65,199.94v-24.2l0,0c0-1.3,1.18-2.6,2.6-2.6h88.3c1.65,0,2.95,1.18,2.95,2.6v24.2H192.65z"/>
					<path class="st38" d="M198.2,195.69c0.35,0,0.59-0.24,0.59-0.59v-17.82c0-0.35-0.35-0.59-0.59-0.59h-1.06
						c-0.35,0-0.59,0.35-0.59,0.59v17.82c0,0.35,0.35,0.59,0.59,0.59H198.2"/>
					<path class="st38" d="M202.92,195.69c0.47,0,0.71,0,0.35-0.59v-17.82c0-0.35-0.35-0.59-0.59-0.59h-1.06
						c-0.12,0-0.35,0.35-0.35,0.59v17.82l0,0c0,0.35,0.35,0.59,0.59,0.59H202.92"/>
					<path class="st38" d="M207.53,195.69L207.53,195.69c0.35,0,0.59-0.24,0.59-0.59v-17.82l0,0c0-0.35-0.35-0.59-0.59-0.59h-1.06
						c-0.35,0-0.59,0.35-0.59,0.59v17.82l0,0c0,0.35,0.35,0.59,0.59,0.59H207.53"/>
					<path class="st38" d="M212.25,195.69L212.25,195.69c0.47,0,0.47-0.24,0.59-0.59v-17.82l0,0c0-0.35-0.35-0.59-0.59-0.59h-1.06
						c-0.35,0-0.59,0.35-0.59,0.59v17.82l0,0c0,0.35,0.35,0.59,0.59,0.59H212.25"/>
					<path class="st38" d="M216.97,195.69L216.97,195.69c0.24,0,0.35-0.24,0.59-0.59v-17.82l0,0c0-0.35-0.35-0.59-0.59-0.59h-1.06
						c-0.35,0-0.59,0.35-0.59,0.59v17.82l0,0c0,0.35,0.35,0.59,0.59,0.59H216.97"/>
					<path class="st38" d="M221.46,195.69c0.24,0,0.59-0.24,0.59-0.59v-17.82c0-0.35-0.35-0.59-0.59-0.59h-1.06
						c-0.35,0-0.59,0.35-0.59,0.59v17.82l0,0c0,0.35,0.35,0.59,0.59,0.59H221.46"/>
					<path class="st38" d="M226.3,195.69L226.3,195.69c0.24,0,0.35-0.24,0.59-0.59v-17.82l0,0c0-0.35-0.35-0.59-0.59-0.59h-1.06
						c-0.35,0-0.59,0.35-0.59,0.59v17.82l0,0c0,0.35,0.35,0.59,0.59,0.59H226.3"/>
					<path class="st38" d="M230.78,195.69L230.78,195.69c0.24,0,0.35-0.24,0.59-0.59v-17.82l0,0c0-0.35-0.35-0.59-0.59-0.59h-1.06
						c-0.35,0-0.59,0.35-0.59,0.59v17.82l0,0c0,0.35,0.35,0.59,0.59,0.59H230.78"/>
					<path class="st38" d="M235.62,195.69L235.62,195.69c0.12,0,0.35-0.24,0.59-0.59v-17.82l0,0c0-0.35-0.35-0.59-0.59-0.59h-1.06
						c-0.35,0-0.59,0.35-0.59,0.59v17.82l0,0c0,0.35,0.35,0.59,0.59,0.59H235.62"/>
					<path class="st38" d="M240.11,195.69L240.11,195.69c0.12,0,0.71-0.24,0.35-0.59v-17.82l0,0c0-0.35-0.35-0.59-0.59-0.59h-1.06
						c-0.35,0-0.35,0.35-0.35,0.59v17.82l0,0c0,0.35,0.35,0.59,0.59,0.59H240.11"/>
					<path class="st38" d="M244.83,195.69L244.83,195.69c0.24,0,0.47-0.24,0.59-0.59v-17.82l0,0c0-0.35-0.35-0.59-0.59-0.59h-1.06
						c-0.35,0-0.59,0.35-0.59,0.59v17.82l0,0c0,0.35,0.35,0.59,0.59,0.59H244.83"/>
					<path class="st38" d="M249.31,195.69L249.31,195.69c0.24,0,0.71-0.24,0.59-0.59v-17.82l0,0c0-0.35-0.35-0.59-0.59-0.59h-1.06
						c-0.35,0-0.59,0.35-0.59,0.59v17.82l0,0c0,0.35,0.35,0.59,0.59,0.59H249.31"/>
					<path class="st38" d="M254.04,195.69c0.35,0,0.47-0.24,0.59-0.59v-17.82c0-0.35-0.35-0.59-0.59-0.59h-1.06
						c-0.35,0-0.59,0.35-0.59,0.59v17.82l0,0c0,0.35,0.35,0.59,0.59,0.59H254.04"/>
					<path class="st38" d="M258.64,195.69c0.35,0,0.71-0.24,0.59-0.59v-17.82l0,0c0-0.35-0.35-0.59-0.59-0.59h-1.06
						c-0.35,0-0.59,0.35-0.59,0.59v17.82l0,0c0,0.35,0.35,0.59,0.59,0.59H258.64"/>
					<path class="st39" d="M263.24,195.69L263.24,195.69c0.47,0,0.59-0.24,0.59-0.59v-17.82l0,0c0-0.35-0.35-0.59-0.59-0.59h-1.06
						c-0.35,0-0.59,0.35-0.59,0.59v17.82l0,0c0,0.35,0.35,0.59,0.59,0.59H263.24"/>
					<path class="st39" d="M267.97,195.69L267.97,195.69c0.35,0,0.71-0.24,0.59-0.59v-17.82l0,0c0-0.35-0.35-0.59-0.59-0.59h-1.06
						c-0.35,0-0.59,0.35-0.59,0.59v17.82l0,0c0,0.35,0.35,0.59,0.59,0.59H267.97"/>
					<path class="st39" d="M272.57,195.69L272.57,195.69c0.35,0,0.59-0.24,0.59-0.59v-17.82l0,0c0-0.35-0.35-0.59-0.59-0.59h-1.06
						c-0.35,0-0.59,0.35-0.59,0.59v17.82l0,0c0,0.35,0.35,0.59,0.59,0.59H272.57"/>
					<path class="st39" d="M277.29,195.69L277.29,195.69c0.12,0,0.35-0.24,0.59-0.59v-17.82l0,0c0-0.35-0.35-0.59-0.59-0.59h-1.06
						c-0.35,0-0.59,0.35-0.59,0.59v17.82l0,0c0,0.35,0.35,0.59,0.59,0.59H277.29"/>
					<path class="st39" d="M282.01,195.69L282.01,195.69c0.24,0,0.47-0.24,0.59-0.59v-17.82l0,0c0-0.35-0.35-0.59-0.59-0.59h-1.06
						c-0.35,0-0.59,0.35-0.59,0.59v17.82l0,0c0,0.35,0.35,0.59,0.59,0.59H282.01"/>
					<path class="st37" d="M290.28,199.94v-24.2l0,0c0-1.3,1.18-2.6,2.6-2.6h88.3c1.65,0,2.95,1.18,2.95,2.6v24.2H290.28z"/>
					<path class="st38" d="M295.82,195.69c0.35,0,0.59-0.24,0.59-0.59v-17.82c0-0.35-0.35-0.59-0.59-0.59h-1.06
						c-0.35,0-0.59,0.35-0.59,0.59v17.82c0,0.35,0.35,0.59,0.59,0.59H295.82"/>
					<path class="st38" d="M300.66,195.69c0.35,0,0.59,0,0.35-0.59v-17.82c0-0.35-0.35-0.59-0.59-0.59h-1.06
						c-0.12,0-0.35,0.35-0.35,0.59v17.82l0,0c0,0.35,0.35,0.59,0.59,0.59H300.66"/>
					<path class="st38" d="M305.15,195.69L305.15,195.69c0.35,0,0.59-0.24,0.59-0.59v-17.82l0,0c0-0.35-0.35-0.59-0.59-0.59h-1.06
						c-0.35,0-0.59,0.35-0.59,0.59v17.82l0,0c0,0.35,0.35,0.59,0.59,0.59H305.15"/>
					<path class="st38" d="M309.99,195.69L309.99,195.69c0.12,0,0.35-0.24,0.59-0.59v-17.82l0,0c0-0.35-0.35-0.59-0.59-0.59h-1.06
						c-0.35,0-0.59,0.35-0.59,0.59v17.82l0,0c0,0.35,0.35,0.59,0.59,0.59H309.99"/>
					<path class="st38" d="M314.47,195.69L314.47,195.69c0.35,0,0.59-0.24,0.59-0.59v-17.82l0,0c0-0.35-0.35-0.59-0.59-0.59h-1.06
						c-0.35,0-0.59,0.35-0.59,0.59v17.82l0,0c0,0.35,0.35,0.59,0.59,0.59H314.47"/>
					<path class="st38" d="M319.2,195.69c0.24,0,0.47-0.24,0.59-0.59v-17.82c0-0.35-0.35-0.59-0.59-0.59h-1.06
						c-0.35,0-0.59,0.35-0.59,0.59v17.82l0,0c0,0.35,0.35,0.59,0.59,0.59H319.2"/>
					<path class="st38" d="M323.68,195.69L323.68,195.69c0.47,0,0.59-0.24,0.59-0.59v-17.82l0,0c0-0.35-0.35-0.59-0.59-0.59h-1.06
						c-0.35,0-0.59,0.35-0.59,0.59v17.82l0,0c0,0.35,0.35,0.59,0.59,0.59H323.68"/>
					<path class="st38" d="M328.52,195.69L328.52,195.69c0.24,0,0.35-0.24,0.59-0.59v-17.82l0,0c0-0.35-0.35-0.59-0.59-0.59h-1.06
						c-0.35,0-0.59,0.35-0.59,0.59v17.82l0,0c0,0.35,0.35,0.59,0.59,0.59H328.52"/>
					<path class="st38" d="M333.01,195.69L333.01,195.69c0.35,0,0.59-0.24,0.59-0.59v-17.82l0,0c0-0.35-0.35-0.59-0.59-0.59h-1.06
						c-0.35,0-0.59,0.35-0.59,0.59v17.82l0,0c0,0.35,0.35,0.59,0.59,0.59H333.01"/>
					<path class="st38" d="M337.85,195.69L337.85,195.69c0.12,0,0.35-0.24,0.35-0.59v-17.82l0,0c0-0.35-0.35-0.59-0.59-0.59h-1.06
						c-0.35,0-0.35,0.35-0.35,0.59v17.82l0,0c0,0.35,0.35,0.59,0.59,0.59H337.85"/>
					<path class="st38" d="M342.45,195.69L342.45,195.69c0.24,0,0.47-0.24,0.59-0.59v-17.82l0,0c0-0.35-0.35-0.59-0.59-0.59h-1.06
						c-0.35,0-0.59,0.35-0.59,0.59v17.82l0,0c0,0.35,0.35,0.59,0.59,0.59H342.45"/>
					<path class="st38" d="M347.17,195.69L347.17,195.69c0.12,0,0.35-0.24,0.59-0.59v-17.82l0,0c0-0.35-0.35-0.59-0.59-0.59h-1.06
						c-0.35,0-0.59,0.35-0.59,0.59v17.82l0,0c0,0.35,0.35,0.59,0.59,0.59H347.17"/>
					<path class="st38" d="M351.66,195.69c0.12,0,0.47-0.24,0.59-0.59v-17.82c0-0.35-0.35-0.59-0.59-0.59h-1.06
						c-0.35,0-0.59,0.35-0.59,0.59v17.82l0,0c0,0.35,0.35,0.59,0.59,0.59H351.66"/>
					<path class="st38" d="M356.38,195.69c0.24,0,0.47-0.24,0.59-0.59v-17.82l0,0c0-0.35-0.35-0.59-0.59-0.59h-1.06
						c-0.35,0-0.59,0.35-0.59,0.59v17.82l0,0c0,0.35,0.35,0.59,0.59,0.59H356.38"/>
					<path class="st39" d="M360.87,195.69L360.87,195.69c0.24,0,0.59-0.24,0.59-0.59v-17.82l0,0c0-0.35-0.35-0.59-0.59-0.59h-1.06
						c-0.35,0-0.59,0.35-0.59,0.59v17.82l0,0c0,0.35,0.35,0.59,0.59,0.59H360.87"/>
					<path class="st39" d="M365.71,195.69L365.71,195.69c0.24,0,0.59-0.24,0.59-0.59v-17.82l0,0c0-0.35-0.35-0.59-0.59-0.59h-1.06
						c-0.35,0-0.59,0.35-0.59,0.59v17.82l0,0c0,0.35,0.35,0.59,0.59,0.59H365.71"/>
					<path class="st39" d="M370.19,195.69L370.19,195.69c0.35,0,0.59-0.24,0.59-0.59v-17.82l0,0c0-0.35-0.35-0.59-0.59-0.59h-1.06
						c-0.35,0-0.59,0.35-0.59,0.59v17.82l0,0c0,0.35,0.35,0.59,0.59,0.59H370.19"/>
					<path class="st39" d="M374.68,195.69C374.68,195.69,375.03,195.69,374.68,195.69c0.47,0,0.71-0.24,0.59-0.59v-17.82l0,0
						c0-0.35-0.35-0.59-0.59-0.59h-1.06c-0.35,0-0.59,0.35-0.59,0.59v17.82l0,0c0,0.35,0.35,0.59,0.59,0.59H374.68"/>
					<path class="st39" d="M379.64,195.69L379.64,195.69c0.47,0,0.59-0.24,0.59-0.59v-17.82l0,0c0-0.35-0.35-0.59-0.59-0.59h-1.06
						c-0.35,0-0.59,0.35-0.59,0.59v17.82l0,0c0,0.35,0.35,0.59,0.59,0.59H379.64"/>
				</g>
				<g>
					<path class="st37" d="M192.65,172.79v-24.2l0,0c0-1.3,1.18-2.6,2.6-2.6h88.3c1.65,0,2.95,1.18,2.95,2.6v24.2H192.65z"/>
					<path class="st38" d="M198.2,168.66c0.35,0,0.59-0.12,0.59-0.71v-17.59c0-0.35-0.35-0.59-0.59-0.59h-1.06
						c-0.35,0-0.59,0.35-0.59,0.59v17.71c0,0.35,0.35,0.59,0.59,0.59H198.2"/>
					<path class="st38" d="M202.92,168.66c0.47,0,0.71-0.12,0.35-0.71v-17.59c0-0.35-0.35-0.59-0.59-0.59h-1.06
						c-0.12,0-0.35,0.35-0.35,0.59v17.71l0,0c0,0.35,0.35,0.59,0.59,0.59H202.92"/>
					<path class="st38" d="M207.53,168.66L207.53,168.66c0.35,0,0.59-0.12,0.59-0.71v-17.59l0,0c0-0.35-0.35-0.59-0.59-0.59h-1.06
						c-0.35,0-0.59,0.35-0.59,0.59v17.71l0,0c0,0.35,0.35,0.59,0.59,0.59H207.53"/>
					<path class="st38" d="M212.25,168.66L212.25,168.66c0.47,0,0.47-0.12,0.59-0.71v-17.59l0,0c0-0.35-0.35-0.59-0.59-0.59h-1.06
						c-0.35,0-0.59,0.35-0.59,0.59v17.71l0,0c0,0.35,0.35,0.59,0.59,0.59H212.25"/>
					<path class="st38" d="M216.97,168.66L216.97,168.66c0.24,0,0.35-0.12,0.59-0.71v-17.59l0,0c0-0.35-0.35-0.59-0.59-0.59h-1.06
						c-0.35,0-0.59,0.35-0.59,0.59v17.71l0,0c0,0.35,0.35,0.59,0.59,0.59H216.97"/>
					<path class="st38" d="M221.46,168.66c0.24,0,0.59-0.12,0.59-0.71v-17.59c0-0.35-0.35-0.59-0.59-0.59h-1.06
						c-0.35,0-0.59,0.35-0.59,0.59v17.71l0,0c0,0.35,0.35,0.59,0.59,0.59H221.46"/>
					<path class="st38" d="M226.3,168.66L226.3,168.66c0.24,0,0.35-0.12,0.59-0.71v-17.59l0,0c0-0.35-0.35-0.59-0.59-0.59h-1.06
						c-0.35,0-0.59,0.35-0.59,0.59v17.71l0,0c0,0.35,0.35,0.59,0.59,0.59H226.3"/>
					<path class="st38" d="M230.78,168.66L230.78,168.66c0.24,0,0.35-0.12,0.59-0.71v-17.59l0,0c0-0.35-0.35-0.59-0.59-0.59h-1.06
						c-0.35,0-0.59,0.35-0.59,0.59v17.71l0,0c0,0.35,0.35,0.59,0.59,0.59H230.78"/>
					<path class="st38" d="M235.62,168.66L235.62,168.66c0.12,0,0.35-0.12,0.59-0.71v-17.59l0,0c0-0.35-0.35-0.59-0.59-0.59h-1.06
						c-0.35,0-0.59,0.35-0.59,0.59v17.71l0,0c0,0.35,0.35,0.59,0.59,0.59H235.62"/>
					<path class="st38" d="M240.11,168.66L240.11,168.66c0.12,0,0.71-0.12,0.35-0.71v-17.59l0,0c0-0.35-0.35-0.59-0.59-0.59h-1.06
						c-0.35,0-0.35,0.35-0.35,0.59v17.71l0,0c0,0.35,0.35,0.59,0.59,0.59H240.11"/>
					<path class="st38" d="M244.83,168.66L244.83,168.66c0.24,0,0.47-0.12,0.59-0.71v-17.59l0,0c0-0.35-0.35-0.59-0.59-0.59h-1.06
						c-0.35,0-0.59,0.35-0.59,0.59v17.71l0,0c0,0.35,0.35,0.59,0.59,0.59H244.83"/>
					<path class="st38" d="M249.31,168.66L249.31,168.66c0.24,0,0.71-0.12,0.59-0.71v-17.59l0,0c0-0.35-0.35-0.59-0.59-0.59h-1.06
						c-0.35,0-0.59,0.35-0.59,0.59v17.71l0,0c0,0.35,0.35,0.59,0.59,0.59H249.31"/>
					<path class="st38" d="M254.04,168.66c0.35,0,0.47-0.12,0.59-0.71v-17.59c0-0.35-0.35-0.59-0.59-0.59h-1.06
						c-0.35,0-0.59,0.35-0.59,0.59v17.71l0,0c0,0.35,0.35,0.59,0.59,0.59H254.04"/>
					<path class="st38" d="M258.64,168.66c0.35,0,0.71-0.12,0.59-0.71v-17.59l0,0c0-0.35-0.35-0.59-0.59-0.59h-1.06
						c-0.35,0-0.59,0.35-0.59,0.59v17.71l0,0c0,0.35,0.35,0.59,0.59,0.59H258.64"/>
					<path class="st39" d="M263.24,168.66L263.24,168.66c0.47,0,0.59-0.12,0.59-0.71v-17.59l0,0c0-0.35-0.35-0.59-0.59-0.59h-1.06
						c-0.35,0-0.59,0.35-0.59,0.59v17.71l0,0c0,0.35,0.35,0.59,0.59,0.59H263.24"/>
					<path class="st39" d="M267.97,168.66L267.97,168.66c0.35,0,0.71-0.12,0.59-0.71v-17.59l0,0c0-0.35-0.35-0.59-0.59-0.59h-1.06
						c-0.35,0-0.59,0.35-0.59,0.59v17.71l0,0c0,0.35,0.35,0.59,0.59,0.59H267.97"/>
					<path class="st39" d="M272.57,168.66L272.57,168.66c0.35,0,0.59-0.12,0.59-0.71v-17.59l0,0c0-0.35-0.35-0.59-0.59-0.59h-1.06
						c-0.35,0-0.59,0.35-0.59,0.59v17.71l0,0c0,0.35,0.35,0.59,0.59,0.59H272.57"/>
					<path class="st39" d="M277.29,168.66L277.29,168.66c0.12,0,0.35-0.12,0.59-0.71v-17.59l0,0c0-0.35-0.35-0.59-0.59-0.59h-1.06
						c-0.35,0-0.59,0.35-0.59,0.59v17.71l0,0c0,0.35,0.35,0.59,0.59,0.59H277.29"/>
					<path class="st39" d="M282.01,168.66L282.01,168.66c0.24,0,0.47-0.12,0.59-0.71v-17.59l0,0c0-0.35-0.35-0.59-0.59-0.59h-1.06
						c-0.35,0-0.59,0.35-0.59,0.59v17.71l0,0c0,0.35,0.35,0.59,0.59,0.59H282.01"/>
					<path class="st37" d="M290.28,172.79v-24.2l0,0c0-1.3,1.18-2.6,2.6-2.6h88.3c1.65,0,2.95,1.18,2.95,2.6v24.2H290.28z"/>
					<path class="st38" d="M295.82,168.66c0.35,0,0.59-0.12,0.59-0.71v-17.59c0-0.35-0.35-0.59-0.59-0.59h-1.06
						c-0.35,0-0.59,0.35-0.59,0.59v17.71c0,0.35,0.35,0.59,0.59,0.59H295.82"/>
					<path class="st38" d="M300.66,168.66c0.35,0,0.59-0.12,0.35-0.71v-17.59c0-0.35-0.35-0.59-0.59-0.59h-1.06
						c-0.12,0-0.35,0.35-0.35,0.59v17.71l0,0c0,0.35,0.35,0.59,0.59,0.59H300.66"/>
					<path class="st38" d="M305.15,168.66L305.15,168.66c0.35,0,0.59-0.12,0.59-0.71v-17.59l0,0c0-0.35-0.35-0.59-0.59-0.59h-1.06
						c-0.35,0-0.59,0.35-0.59,0.59v17.71l0,0c0,0.35,0.35,0.59,0.59,0.59H305.15"/>
					<path class="st38" d="M309.99,168.66L309.99,168.66c0.12,0,0.35-0.12,0.59-0.71v-17.59l0,0c0-0.35-0.35-0.59-0.59-0.59h-1.06
						c-0.35,0-0.59,0.35-0.59,0.59v17.71l0,0c0,0.35,0.35,0.59,0.59,0.59H309.99"/>
					<path class="st38" d="M314.47,168.66L314.47,168.66c0.35,0,0.59-0.12,0.59-0.71v-17.59l0,0c0-0.35-0.35-0.59-0.59-0.59h-1.06
						c-0.35,0-0.59,0.35-0.59,0.59v17.71l0,0c0,0.35,0.35,0.59,0.59,0.59H314.47"/>
					<path class="st38" d="M319.2,168.66c0.24,0,0.47-0.12,0.59-0.71v-17.59c0-0.35-0.35-0.59-0.59-0.59h-1.06
						c-0.35,0-0.59,0.35-0.59,0.59v17.71l0,0c0,0.35,0.35,0.59,0.59,0.59H319.2"/>
					<path class="st38" d="M323.68,168.66L323.68,168.66c0.47,0,0.59-0.12,0.59-0.71v-17.59l0,0c0-0.35-0.35-0.59-0.59-0.59h-1.06
						c-0.35,0-0.59,0.35-0.59,0.59v17.71l0,0c0,0.35,0.35,0.59,0.59,0.59H323.68"/>
					<path class="st38" d="M328.52,168.66L328.52,168.66c0.24,0,0.35-0.12,0.59-0.71v-17.59l0,0c0-0.35-0.35-0.59-0.59-0.59h-1.06
						c-0.35,0-0.59,0.35-0.59,0.59v17.71l0,0c0,0.35,0.35,0.59,0.59,0.59H328.52"/>
					<path class="st38" d="M333.01,168.66L333.01,168.66c0.35,0,0.59-0.12,0.59-0.71v-17.59l0,0c0-0.35-0.35-0.59-0.59-0.59h-1.06
						c-0.35,0-0.59,0.35-0.59,0.59v17.71l0,0c0,0.35,0.35,0.59,0.59,0.59H333.01"/>
					<path class="st38" d="M337.85,168.66L337.85,168.66c0.12,0,0.35-0.12,0.35-0.71v-17.59l0,0c0-0.35-0.35-0.59-0.59-0.59h-1.06
						c-0.35,0-0.35,0.35-0.35,0.59v17.71l0,0c0,0.35,0.35,0.59,0.59,0.59H337.85"/>
					<path class="st38" d="M342.45,168.66L342.45,168.66c0.24,0,0.47-0.12,0.59-0.71v-17.59l0,0c0-0.35-0.35-0.59-0.59-0.59h-1.06
						c-0.35,0-0.59,0.35-0.59,0.59v17.71l0,0c0,0.35,0.35,0.59,0.59,0.59H342.45"/>
					<path class="st38" d="M347.17,168.66L347.17,168.66c0.12,0,0.35-0.12,0.59-0.71v-17.59l0,0c0-0.35-0.35-0.59-0.59-0.59h-1.06
						c-0.35,0-0.59,0.35-0.59,0.59v17.71l0,0c0,0.35,0.35,0.59,0.59,0.59H347.17"/>
					<path class="st38" d="M351.66,168.66c0.12,0,0.47-0.12,0.59-0.71v-17.59c0-0.35-0.35-0.59-0.59-0.59h-1.06
						c-0.35,0-0.59,0.35-0.59,0.59v17.71l0,0c0,0.35,0.35,0.59,0.59,0.59H351.66"/>
					<path class="st38" d="M356.38,168.66c0.24,0,0.47-0.12,0.59-0.71v-17.59l0,0c0-0.35-0.35-0.59-0.59-0.59h-1.06
						c-0.35,0-0.59,0.35-0.59,0.59v17.71l0,0c0,0.35,0.35,0.59,0.59,0.59H356.38"/>
					<path class="st39" d="M360.87,168.66L360.87,168.66c0.24,0,0.59-0.12,0.59-0.71v-17.59l0,0c0-0.35-0.35-0.59-0.59-0.59h-1.06
						c-0.35,0-0.59,0.35-0.59,0.59v17.71l0,0c0,0.35,0.35,0.59,0.59,0.59H360.87"/>
					<path class="st39" d="M365.71,168.66L365.71,168.66c0.24,0,0.59-0.12,0.59-0.71v-17.59l0,0c0-0.35-0.35-0.59-0.59-0.59h-1.06
						c-0.35,0-0.59,0.35-0.59,0.59v17.71l0,0c0,0.35,0.35,0.59,0.59,0.59H365.71"/>
					<path class="st39" d="M370.19,168.66L370.19,168.66c0.35,0,0.59-0.12,0.59-0.71v-17.59l0,0c0-0.35-0.35-0.59-0.59-0.59h-1.06
						c-0.35,0-0.59,0.35-0.59,0.59v17.71l0,0c0,0.35,0.35,0.59,0.59,0.59H370.19"/>
					<path class="st39" d="M374.68,168.66C374.68,168.66,375.03,168.66,374.68,168.66c0.47,0,0.71-0.12,0.59-0.71v-17.59l0,0
						c0-0.35-0.35-0.59-0.59-0.59h-1.06c-0.35,0-0.59,0.35-0.59,0.59v17.71l0,0c0,0.35,0.35,0.59,0.59,0.59H374.68"/>
					<path class="st39" d="M379.64,168.66L379.64,168.66c0.47,0,0.59-0.12,0.59-0.71v-17.59l0,0c0-0.35-0.35-0.59-0.59-0.59h-1.06
						c-0.35,0-0.59,0.35-0.59,0.59v17.71l0,0c0,0.35,0.35,0.59,0.59,0.59H379.64"/>
				</g>
				<polygon class="st40" points="117.69,171.13 126.08,139.5 139.53,139.5 139.53,171.13 				"/>
				<path class="st18" d="M433.82,226.5c-4.13-2.95-5.67-7.2-5.08-12.28l29.16-31.64h-50.76c-2.36,0-5.19,0.59-7.2,2.01
					l-25.26,15.46H188.52l-10.74-11.1c-2.12-2.24-5.08-3.54-8.26-3.54H90.31l14.87,31.16c2.95,6.02,9.09,9.92,15.94,9.92H433.82"/>
				<rect x="144.49" y="156.62" class="st41" width="17.12" height="14.52"/>
				<path class="st42" d="M165.15,185.3v-13.46l0,0c0-1.18-0.94-2.24-2.24-2.24h-54.54l0,0c-1.18,0-2.01,0.94-2.01,2.24v13.34"/>
				<path class="st42" d="M144.25,156.62h19.12c0.83,0,1.65-0.83,1.65-1.65v-2.24h-20.78V156.62z"/>
				<polygon class="st43" points="124.42,145.99 139.53,145.99 139.53,162.99 119.94,162.99 				"/>
				<polygon class="st22" points="125.37,155.91 125.37,155.91 129.62,155.91 128.55,160.04 128.55,160.04 131.27,156.62 
					134.1,160.04 134.1,160.04 133.16,155.91 137.41,155.91 137.41,155.91 133.51,154.02 136.35,150.48 136.35,150.48 
					132.21,152.37 131.27,148.23 131.27,148.23 130.44,152.37 126.43,150.48 126.43,150.48 129.03,154.02 				"/>
			</g>
		</g>
	</g>
	<g>
		<g>
			<g>
				<g>
					<g>
						<defs>
							<polygon id="SVGID_37_" points="327.05,162.28 327.05,157.02 328.45,157.02 330.23,160.95 331.98,157.02 333.33,157.02 
								333.33,162.28 332.17,162.28 332.17,159.22 330.83,162.28 329.6,162.28 328.24,159.24 328.24,162.28 							"/>
						</defs>
						<use xlink:href="#SVGID_37_"  style="overflow:visible;fill:#03253D;"/>
						<clipPath id="SVGID_38_">
							<use xlink:href="#SVGID_37_"  style="overflow:visible;"/>
						</clipPath>
						<g class="st44">
							<defs>
								<rect id="SVGID_39_" x="145.93" y="142.53" width="233.01" height="351.07"/>
							</defs>
							<use xlink:href="#SVGID_39_"  style="overflow:visible;fill:#03253D;"/>
							<clipPath id="SVGID_40_">
								<use xlink:href="#SVGID_39_"  style="overflow:visible;"/>
							</clipPath>
							<rect x="325.1" y="155.08" class="st45" width="10.17" height="9.15"/>
						</g>
					</g>
					<g>
						<defs>
							<path id="SVGID_41_" d="M337.99,160.24l-0.97-2.23l-0.95,2.23H337.99z M335.21,162.28h-1.36l2.34-5.26h1.68l2.36,5.26h-1.35
								l-0.46-1.05h-2.75L335.21,162.28z"/>
						</defs>
						<use xlink:href="#SVGID_41_"  style="overflow:visible;fill:#03253D;"/>
						<clipPath id="SVGID_42_">
							<use xlink:href="#SVGID_41_"  style="overflow:visible;"/>
						</clipPath>
						<g class="st46">
							<defs>
								<rect id="SVGID_43_" x="145.93" y="142.53" width="233.01" height="351.07"/>
							</defs>
							<use xlink:href="#SVGID_43_"  style="overflow:visible;fill:#03253D;"/>
							<clipPath id="SVGID_44_">
								<use xlink:href="#SVGID_43_"  style="overflow:visible;"/>
							</clipPath>
							<rect x="331.9" y="155.08" class="st47" width="10.26" height="9.15"/>
						</g>
					</g>
					<g>
						<defs>
							<polygon id="SVGID_45_" points="340.76,162.28 340.76,157.02 345.8,157.02 345.8,158.07 341.98,158.07 341.98,159.12 
								345.26,159.12 345.26,160.14 341.98,160.14 341.98,161.23 345.81,161.23 345.81,162.28 							"/>
						</defs>
						<use xlink:href="#SVGID_45_"  style="overflow:visible;fill:#03253D;"/>
						<clipPath id="SVGID_46_">
							<use xlink:href="#SVGID_45_"  style="overflow:visible;"/>
						</clipPath>
						<g class="st48">
							<defs>
								<rect id="SVGID_47_" x="145.93" y="142.53" width="233.01" height="351.07"/>
							</defs>
							<use xlink:href="#SVGID_47_"  style="overflow:visible;fill:#03253D;"/>
							<clipPath id="SVGID_48_">
								<use xlink:href="#SVGID_47_"  style="overflow:visible;"/>
							</clipPath>
							<rect x="338.82" y="155.08" class="st49" width="8.93" height="9.15"/>
						</g>
					</g>
					<g>
						<defs>
							<path id="SVGID_49_" d="M348.03,159.44h2.65v-1.36h-2.65V159.44z M346.79,162.28v-5.26h4.22c0.57,0,0.89,0.32,0.89,0.88v1.77
								c0,0.41-0.36,0.77-1.06,0.77c-0.04,0-0.08,0-0.12,0l1.23,1.84h-1.36l-1.16-1.8h-1.4v1.8H346.79z"/>
						</defs>
						<use xlink:href="#SVGID_49_"  style="overflow:visible;fill:#03253D;"/>
						<clipPath id="SVGID_50_">
							<use xlink:href="#SVGID_49_"  style="overflow:visible;"/>
						</clipPath>
						<g class="st50">
							<defs>
								<rect id="SVGID_51_" x="145.93" y="142.53" width="233.01" height="351.07"/>
							</defs>
							<use xlink:href="#SVGID_51_"  style="overflow:visible;fill:#03253D;"/>
							<clipPath id="SVGID_52_">
								<use xlink:href="#SVGID_51_"  style="overflow:visible;"/>
							</clipPath>
							<rect x="344.85" y="155.08" class="st51" width="9.03" height="9.15"/>
						</g>
					</g>
					<g>
						<defs>
							<path id="SVGID_53_" d="M354.12,162.29h-0.42c-0.55,0-0.81-0.31-0.81-0.77v-0.69h1.22v0.41h2.61v-1.08c0,0-2.51,0-2.99,0
								c-0.48,0-0.82-0.32-0.82-0.76v-1.56c0-0.47,0.37-0.81,0.83-0.81c0.46,0,3.42,0,3.42,0c0.46,0,0.78,0.35,0.78,0.84
								c0,0.5,0,0.63,0,0.63h-1.22v-0.42h-2.61v1.04h2.98c0.44,0,0.84,0.29,0.84,0.85v1.5c0,0.51-0.28,0.82-0.82,0.82
								C356.59,162.29,354.12,162.29,354.12,162.29z"/>
						</defs>
						<use xlink:href="#SVGID_53_"  style="overflow:visible;fill:#03253D;"/>
						<clipPath id="SVGID_54_">
							<use xlink:href="#SVGID_53_"  style="overflow:visible;"/>
						</clipPath>
						<g class="st52">
							<defs>
								<rect id="SVGID_55_" x="145.93" y="142.53" width="233.01" height="351.07"/>
							</defs>
							<use xlink:href="#SVGID_55_"  style="overflow:visible;fill:#03253D;"/>
							<clipPath id="SVGID_56_">
								<use xlink:href="#SVGID_55_"  style="overflow:visible;"/>
							</clipPath>
							<rect x="350.95" y="155.08" class="st53" width="8.93" height="9.14"/>
						</g>
					</g>
					<polygon class="st16" points="359.12,162.29 359.12,157.02 360.37,157.02 360.37,159.13 362.75,157.02 364.45,157.02 
						361.61,159.47 364.55,162.29 362.8,162.29 360.37,159.89 360.37,162.29 					"/>
					<g>
						<defs>
							<path id="SVGID_57_" d="M322.13,164.51c0,0.73-0.62,1.32-1.38,1.32h-8.68c-0.76,0-1.38-0.59-1.38-1.32v-8.93
								c0-0.73,0.62-1.32,1.38-1.32h8.68c0.76,0,1.38,0.59,1.38,1.32V164.51z"/>
						</defs>
						<clipPath id="SVGID_58_">
							<use xlink:href="#SVGID_57_"  style="overflow:visible;"/>
						</clipPath>
						<g class="st54">
							<defs>
								<rect id="SVGID_59_" x="145.93" y="142.53" width="233.01" height="351.07"/>
							</defs>
							<clipPath id="SVGID_60_">
								<use xlink:href="#SVGID_59_"  style="overflow:visible;"/>
							</clipPath>
							<rect x="308.75" y="152.31" class="st55" width="15.32" height="15.46"/>
						</g>
					</g>
					<g>
						<defs>
							<polygon id="SVGID_61_" points="318.23,159.74 320.49,157.02 320.48,157.02 317.22,158.52 316.41,155.14 316.4,155.14 
								315.6,158.52 312.34,157.02 312.33,157.02 314.59,159.74 311.32,161.24 311.32,161.25 314.95,161.25 314.14,164.64 
								314.15,164.64 316.41,161.93 318.67,164.64 318.68,164.64 317.87,161.25 321.49,161.25 321.49,161.24 							"/>
						</defs>
						<clipPath id="SVGID_62_">
							<use xlink:href="#SVGID_61_"  style="overflow:visible;"/>
						</clipPath>
						<g class="st56">
							<defs>
								<rect id="SVGID_63_" x="145.93" y="142.53" width="233.01" height="351.07"/>
							</defs>
							<clipPath id="SVGID_64_">
								<use xlink:href="#SVGID_63_"  style="overflow:visible;"/>
							</clipPath>
							<rect x="309.38" y="153.2" class="st57" width="14.05" height="13.39"/>
						</g>
					</g>
				</g>
			</g>
		</g>
	</g>
	<g>
		<g>
			<g>
				<g>
					<g>
						<defs>
							<polygon id="SVGID_65_" points="327.05,190.55 327.05,185.29 328.45,185.29 330.23,189.22 331.98,185.29 333.33,185.29 
								333.33,190.55 332.17,190.55 332.17,187.49 330.83,190.55 329.6,190.55 328.24,187.5 328.24,190.55 							"/>
						</defs>
						<use xlink:href="#SVGID_65_"  style="overflow:visible;fill:#03253D;"/>
						<clipPath id="SVGID_66_">
							<use xlink:href="#SVGID_65_"  style="overflow:visible;"/>
						</clipPath>
						<g class="st58">
							<defs>
								<rect id="SVGID_67_" x="145.93" y="170.8" width="233.01" height="351.07"/>
							</defs>
							<use xlink:href="#SVGID_67_"  style="overflow:visible;fill:#03253D;"/>
							<clipPath id="SVGID_68_">
								<use xlink:href="#SVGID_67_"  style="overflow:visible;"/>
							</clipPath>
							<rect x="325.1" y="183.34" class="st59" width="10.17" height="9.15"/>
						</g>
					</g>
					<g>
						<defs>
							<path id="SVGID_69_" d="M337.99,188.51l-0.97-2.23l-0.95,2.23H337.99z M335.21,190.55h-1.36l2.34-5.26h1.68l2.36,5.26h-1.35
								l-0.46-1.05h-2.75L335.21,190.55z"/>
						</defs>
						<use xlink:href="#SVGID_69_"  style="overflow:visible;fill:#03253D;"/>
						<clipPath id="SVGID_70_">
							<use xlink:href="#SVGID_69_"  style="overflow:visible;"/>
						</clipPath>
						<g class="st60">
							<defs>
								<rect id="SVGID_71_" x="145.93" y="170.8" width="233.01" height="351.07"/>
							</defs>
							<use xlink:href="#SVGID_71_"  style="overflow:visible;fill:#03253D;"/>
							<clipPath id="SVGID_72_">
								<use xlink:href="#SVGID_71_"  style="overflow:visible;"/>
							</clipPath>
							<rect x="331.9" y="183.34" class="st61" width="10.26" height="9.15"/>
						</g>
					</g>
					<g>
						<defs>
							<polygon id="SVGID_73_" points="340.76,190.55 340.76,185.29 345.8,185.29 345.8,186.34 341.98,186.34 341.98,187.38 
								345.26,187.38 345.26,188.41 341.98,188.41 341.98,189.49 345.81,189.49 345.81,190.55 							"/>
						</defs>
						<use xlink:href="#SVGID_73_"  style="overflow:visible;fill:#03253D;"/>
						<clipPath id="SVGID_74_">
							<use xlink:href="#SVGID_73_"  style="overflow:visible;"/>
						</clipPath>
						<g class="st62">
							<defs>
								<rect id="SVGID_75_" x="145.93" y="170.8" width="233.01" height="351.07"/>
							</defs>
							<use xlink:href="#SVGID_75_"  style="overflow:visible;fill:#03253D;"/>
							<clipPath id="SVGID_76_">
								<use xlink:href="#SVGID_75_"  style="overflow:visible;"/>
							</clipPath>
							<rect x="338.82" y="183.34" class="st63" width="8.93" height="9.15"/>
						</g>
					</g>
					<g>
						<defs>
							<path id="SVGID_77_" d="M348.03,187.7h2.65v-1.36h-2.65V187.7z M346.79,190.55v-5.26h4.22c0.57,0,0.89,0.32,0.89,0.88v1.77
								c0,0.41-0.36,0.77-1.06,0.77c-0.04,0-0.08,0-0.12,0l1.23,1.84h-1.36l-1.16-1.8h-1.4v1.8H346.79z"/>
						</defs>
						<use xlink:href="#SVGID_77_"  style="overflow:visible;fill:#03253D;"/>
						<clipPath id="SVGID_78_">
							<use xlink:href="#SVGID_77_"  style="overflow:visible;"/>
						</clipPath>
						<g class="st64">
							<defs>
								<rect id="SVGID_79_" x="145.93" y="170.8" width="233.01" height="351.07"/>
							</defs>
							<use xlink:href="#SVGID_79_"  style="overflow:visible;fill:#03253D;"/>
							<clipPath id="SVGID_80_">
								<use xlink:href="#SVGID_79_"  style="overflow:visible;"/>
							</clipPath>
							<rect x="344.85" y="183.34" class="st65" width="9.03" height="9.15"/>
						</g>
					</g>
					<g>
						<defs>
							<path id="SVGID_81_" d="M354.12,190.55h-0.42c-0.55,0-0.81-0.31-0.81-0.77v-0.69h1.22v0.41h2.61v-1.08c0,0-2.51,0-2.99,0
								c-0.48,0-0.82-0.32-0.82-0.76v-1.56c0-0.47,0.37-0.81,0.83-0.81c0.46,0,3.42,0,3.42,0c0.46,0,0.78,0.35,0.78,0.84
								c0,0.5,0,0.63,0,0.63h-1.22v-0.42h-2.61v1.04h2.98c0.44,0,0.84,0.29,0.84,0.85v1.5c0,0.51-0.28,0.82-0.82,0.82
								C356.59,190.55,354.12,190.55,354.12,190.55z"/>
						</defs>
						<use xlink:href="#SVGID_81_"  style="overflow:visible;fill:#03253D;"/>
						<clipPath id="SVGID_82_">
							<use xlink:href="#SVGID_81_"  style="overflow:visible;"/>
						</clipPath>
						<g class="st66">
							<defs>
								<rect id="SVGID_83_" x="145.93" y="170.8" width="233.01" height="351.07"/>
							</defs>
							<use xlink:href="#SVGID_83_"  style="overflow:visible;fill:#03253D;"/>
							<clipPath id="SVGID_84_">
								<use xlink:href="#SVGID_83_"  style="overflow:visible;"/>
							</clipPath>
							<rect x="350.95" y="183.35" class="st67" width="8.93" height="9.14"/>
						</g>
					</g>
					<polygon class="st16" points="359.12,190.55 359.12,185.29 360.37,185.29 360.37,187.39 362.75,185.29 364.45,185.29 
						361.61,187.73 364.55,190.55 362.8,190.55 360.37,188.16 360.37,190.55 					"/>
					<g>
						<defs>
							<path id="SVGID_85_" d="M322.13,192.77c0,0.73-0.62,1.32-1.38,1.32h-8.68c-0.76,0-1.38-0.59-1.38-1.32v-8.93
								c0-0.73,0.62-1.32,1.38-1.32h8.68c0.76,0,1.38,0.59,1.38,1.32V192.77z"/>
						</defs>
						<clipPath id="SVGID_86_">
							<use xlink:href="#SVGID_85_"  style="overflow:visible;"/>
						</clipPath>
						<g class="st68">
							<defs>
								<rect id="SVGID_87_" x="145.93" y="170.8" width="233.01" height="351.07"/>
							</defs>
							<clipPath id="SVGID_88_">
								<use xlink:href="#SVGID_87_"  style="overflow:visible;"/>
							</clipPath>
							<rect x="308.75" y="180.58" class="st69" width="15.32" height="15.46"/>
						</g>
					</g>
					<g>
						<defs>
							<polygon id="SVGID_89_" points="318.23,188 320.49,185.29 320.48,185.28 317.22,186.79 316.41,183.4 316.4,183.4 
								315.6,186.79 312.34,185.28 312.33,185.29 314.59,188 311.32,189.51 311.32,189.52 314.95,189.52 314.14,192.91 
								314.15,192.91 316.41,190.2 318.67,192.91 318.68,192.9 317.87,189.52 321.49,189.52 321.49,189.51 							"/>
						</defs>
						<clipPath id="SVGID_90_">
							<use xlink:href="#SVGID_89_"  style="overflow:visible;"/>
						</clipPath>
						<g class="st70">
							<defs>
								<rect id="SVGID_91_" x="145.93" y="170.8" width="233.01" height="351.07"/>
							</defs>
							<clipPath id="SVGID_92_">
								<use xlink:href="#SVGID_91_"  style="overflow:visible;"/>
							</clipPath>
							<rect x="309.38" y="181.46" class="st71" width="14.05" height="13.39"/>
						</g>
					</g>
				</g>
			</g>
		</g>
	</g>
	<g>
		<g>
			<g>
				<g>
					<g>
						<defs>
							<polygon id="SVGID_93_" points="228.3,162.28 228.3,157.02 229.71,157.02 231.49,160.95 233.24,157.02 234.58,157.02 
								234.58,162.28 233.43,162.28 233.43,159.22 232.09,162.28 230.86,162.28 229.5,159.24 229.5,162.28 							"/>
						</defs>
						<use xlink:href="#SVGID_93_"  style="overflow:visible;fill:#03253D;"/>
						<clipPath id="SVGID_94_">
							<use xlink:href="#SVGID_93_"  style="overflow:visible;"/>
						</clipPath>
						<g class="st72">
							<defs>
								<rect id="SVGID_95_" x="47.19" y="142.53" width="233.01" height="351.07"/>
							</defs>
							<use xlink:href="#SVGID_95_"  style="overflow:visible;fill:#03253D;"/>
							<clipPath id="SVGID_96_">
								<use xlink:href="#SVGID_95_"  style="overflow:visible;"/>
							</clipPath>
							<rect x="226.36" y="155.08" class="st73" width="10.17" height="9.15"/>
						</g>
					</g>
					<g>
						<defs>
							<path id="SVGID_97_" d="M239.25,160.24l-0.97-2.23l-0.95,2.23H239.25z M236.46,162.28h-1.36l2.34-5.26h1.68l2.36,5.26h-1.35
								l-0.46-1.05h-2.75L236.46,162.28z"/>
						</defs>
						<use xlink:href="#SVGID_97_"  style="overflow:visible;fill:#03253D;"/>
						<clipPath id="SVGID_98_">
							<use xlink:href="#SVGID_97_"  style="overflow:visible;"/>
						</clipPath>
						<g class="st74">
							<defs>
								<rect id="SVGID_99_" x="47.19" y="142.53" width="233.01" height="351.07"/>
							</defs>
							<use xlink:href="#SVGID_99_"  style="overflow:visible;fill:#03253D;"/>
							<clipPath id="SVGID_100_">
								<use xlink:href="#SVGID_99_"  style="overflow:visible;"/>
							</clipPath>
							<rect x="233.16" y="155.08" class="st75" width="10.26" height="9.15"/>
						</g>
					</g>
					<g>
						<defs>
							<polygon id="SVGID_101_" points="242.02,162.28 242.02,157.02 247.06,157.02 247.06,158.07 243.24,158.07 243.24,159.12 
								246.51,159.12 246.51,160.14 243.24,160.14 243.24,161.23 247.07,161.23 247.07,162.28 							"/>
						</defs>
						<use xlink:href="#SVGID_101_"  style="overflow:visible;fill:#03253D;"/>
						<clipPath id="SVGID_102_">
							<use xlink:href="#SVGID_101_"  style="overflow:visible;"/>
						</clipPath>
						<g class="st76">
							<defs>
								<rect id="SVGID_103_" x="47.19" y="142.53" width="233.01" height="351.07"/>
							</defs>
							<use xlink:href="#SVGID_103_"  style="overflow:visible;fill:#03253D;"/>
							<clipPath id="SVGID_104_">
								<use xlink:href="#SVGID_103_"  style="overflow:visible;"/>
							</clipPath>
							<rect x="240.08" y="155.08" class="st77" width="8.93" height="9.15"/>
						</g>
					</g>
					<g>
						<defs>
							<path id="SVGID_105_" d="M249.28,159.44h2.65v-1.36h-2.65V159.44z M248.05,162.28v-5.26h4.22c0.57,0,0.89,0.32,0.89,0.88
								v1.77c0,0.41-0.36,0.77-1.06,0.77c-0.04,0-0.08,0-0.12,0l1.23,1.84h-1.36l-1.16-1.8h-1.4v1.8H248.05z"/>
						</defs>
						<use xlink:href="#SVGID_105_"  style="overflow:visible;fill:#03253D;"/>
						<clipPath id="SVGID_106_">
							<use xlink:href="#SVGID_105_"  style="overflow:visible;"/>
						</clipPath>
						<g class="st78">
							<defs>
								<rect id="SVGID_107_" x="47.19" y="142.53" width="233.01" height="351.07"/>
							</defs>
							<use xlink:href="#SVGID_107_"  style="overflow:visible;fill:#03253D;"/>
							<clipPath id="SVGID_108_">
								<use xlink:href="#SVGID_107_"  style="overflow:visible;"/>
							</clipPath>
							<rect x="246.11" y="155.08" class="st79" width="9.03" height="9.15"/>
						</g>
					</g>
					<g>
						<defs>
							<path id="SVGID_109_" d="M255.38,162.29h-0.42c-0.55,0-0.81-0.31-0.81-0.77v-0.69h1.22v0.41h2.61v-1.08c0,0-2.51,0-2.99,0
								c-0.48,0-0.82-0.32-0.82-0.76v-1.56c0-0.47,0.37-0.81,0.83-0.81c0.46,0,3.42,0,3.42,0c0.46,0,0.78,0.35,0.78,0.84
								c0,0.5,0,0.63,0,0.63h-1.22v-0.42h-2.61v1.04h2.98c0.44,0,0.84,0.29,0.84,0.85v1.5c0,0.51-0.28,0.82-0.82,0.82
								C257.85,162.29,255.38,162.29,255.38,162.29z"/>
						</defs>
						<use xlink:href="#SVGID_109_"  style="overflow:visible;fill:#03253D;"/>
						<clipPath id="SVGID_110_">
							<use xlink:href="#SVGID_109_"  style="overflow:visible;"/>
						</clipPath>
						<g class="st80">
							<defs>
								<rect id="SVGID_111_" x="47.19" y="142.53" width="233.01" height="351.07"/>
							</defs>
							<use xlink:href="#SVGID_111_"  style="overflow:visible;fill:#03253D;"/>
							<clipPath id="SVGID_112_">
								<use xlink:href="#SVGID_111_"  style="overflow:visible;"/>
							</clipPath>
							<rect x="252.21" y="155.08" class="st81" width="8.93" height="9.14"/>
						</g>
					</g>
					<polygon class="st16" points="260.38,162.29 260.38,157.02 261.63,157.02 261.63,159.13 264.01,157.02 265.7,157.02 
						262.86,159.47 265.81,162.29 264.05,162.29 261.63,159.89 261.63,162.29 					"/>
					<g>
						<defs>
							<path id="SVGID_113_" d="M223.38,164.51c0,0.73-0.62,1.32-1.38,1.32h-8.68c-0.76,0-1.38-0.59-1.38-1.32v-8.93
								c0-0.73,0.62-1.32,1.38-1.32H222c0.76,0,1.38,0.59,1.38,1.32V164.51z"/>
						</defs>
						<clipPath id="SVGID_114_">
							<use xlink:href="#SVGID_113_"  style="overflow:visible;"/>
						</clipPath>
						<g class="st82">
							<defs>
								<rect id="SVGID_115_" x="47.19" y="142.53" width="233.01" height="351.07"/>
							</defs>
							<clipPath id="SVGID_116_">
								<use xlink:href="#SVGID_115_"  style="overflow:visible;"/>
							</clipPath>
							<rect x="210" y="152.31" class="st83" width="15.32" height="15.46"/>
						</g>
					</g>
					<g>
						<defs>
							<polygon id="SVGID_117_" points="219.49,159.74 221.75,157.02 221.74,157.02 218.48,158.52 217.67,155.14 217.66,155.14 
								216.85,158.52 213.59,157.02 213.59,157.02 215.84,159.74 212.58,161.24 212.58,161.25 216.2,161.25 215.4,164.64 
								215.41,164.64 217.66,161.93 219.92,164.64 219.93,164.64 219.13,161.25 222.74,161.25 222.75,161.24 							"/>
						</defs>
						<clipPath id="SVGID_118_">
							<use xlink:href="#SVGID_117_"  style="overflow:visible;"/>
						</clipPath>
						<g class="st84">
							<defs>
								<rect id="SVGID_119_" x="47.19" y="142.53" width="233.01" height="351.07"/>
							</defs>
							<clipPath id="SVGID_120_">
								<use xlink:href="#SVGID_119_"  style="overflow:visible;"/>
							</clipPath>
							<rect x="210.64" y="153.2" class="st85" width="14.05" height="13.39"/>
						</g>
					</g>
				</g>
			</g>
		</g>
	</g>
	<g>
		<g>
			<g>
				<g>
					<g>
						<defs>
							<polygon id="SVGID_121_" points="228.3,190.55 228.3,185.29 229.71,185.29 231.49,189.22 233.24,185.29 234.58,185.29 
								234.58,190.55 233.43,190.55 233.43,187.49 232.09,190.55 230.86,190.55 229.5,187.5 229.5,190.55 							"/>
						</defs>
						<use xlink:href="#SVGID_121_"  style="overflow:visible;fill:#03253D;"/>
						<clipPath id="SVGID_122_">
							<use xlink:href="#SVGID_121_"  style="overflow:visible;"/>
						</clipPath>
						<g class="st86">
							<defs>
								<rect id="SVGID_123_" x="47.19" y="170.8" width="233.01" height="351.07"/>
							</defs>
							<use xlink:href="#SVGID_123_"  style="overflow:visible;fill:#03253D;"/>
							<clipPath id="SVGID_124_">
								<use xlink:href="#SVGID_123_"  style="overflow:visible;"/>
							</clipPath>
							<rect x="226.36" y="183.34" class="st87" width="10.17" height="9.15"/>
						</g>
					</g>
					<g>
						<defs>
							<path id="SVGID_125_" d="M239.25,188.51l-0.97-2.23l-0.95,2.23H239.25z M236.46,190.55h-1.36l2.34-5.26h1.68l2.36,5.26h-1.35
								l-0.46-1.05h-2.75L236.46,190.55z"/>
						</defs>
						<use xlink:href="#SVGID_125_"  style="overflow:visible;fill:#03253D;"/>
						<clipPath id="SVGID_126_">
							<use xlink:href="#SVGID_125_"  style="overflow:visible;"/>
						</clipPath>
						<g class="st88">
							<defs>
								<rect id="SVGID_127_" x="47.19" y="170.8" width="233.01" height="351.07"/>
							</defs>
							<use xlink:href="#SVGID_127_"  style="overflow:visible;fill:#03253D;"/>
							<clipPath id="SVGID_128_">
								<use xlink:href="#SVGID_127_"  style="overflow:visible;"/>
							</clipPath>
							<rect x="233.16" y="183.34" class="st89" width="10.26" height="9.15"/>
						</g>
					</g>
					<g>
						<defs>
							<polygon id="SVGID_129_" points="242.02,190.55 242.02,185.29 247.06,185.29 247.06,186.34 243.24,186.34 243.24,187.38 
								246.51,187.38 246.51,188.41 243.24,188.41 243.24,189.49 247.07,189.49 247.07,190.55 							"/>
						</defs>
						<use xlink:href="#SVGID_129_"  style="overflow:visible;fill:#03253D;"/>
						<clipPath id="SVGID_130_">
							<use xlink:href="#SVGID_129_"  style="overflow:visible;"/>
						</clipPath>
						<g class="st90">
							<defs>
								<rect id="SVGID_131_" x="47.19" y="170.8" width="233.01" height="351.07"/>
							</defs>
							<use xlink:href="#SVGID_131_"  style="overflow:visible;fill:#03253D;"/>
							<clipPath id="SVGID_132_">
								<use xlink:href="#SVGID_131_"  style="overflow:visible;"/>
							</clipPath>
							<rect x="240.08" y="183.34" class="st91" width="8.93" height="9.15"/>
						</g>
					</g>
					<g>
						<defs>
							<path id="SVGID_133_" d="M249.28,187.7h2.65v-1.36h-2.65V187.7z M248.05,190.55v-5.26h4.22c0.57,0,0.89,0.32,0.89,0.88v1.77
								c0,0.41-0.36,0.77-1.06,0.77c-0.04,0-0.08,0-0.12,0l1.23,1.84h-1.36l-1.16-1.8h-1.4v1.8H248.05z"/>
						</defs>
						<use xlink:href="#SVGID_133_"  style="overflow:visible;fill:#03253D;"/>
						<clipPath id="SVGID_134_">
							<use xlink:href="#SVGID_133_"  style="overflow:visible;"/>
						</clipPath>
						<g class="st92">
							<defs>
								<rect id="SVGID_135_" x="47.19" y="170.8" width="233.01" height="351.07"/>
							</defs>
							<use xlink:href="#SVGID_135_"  style="overflow:visible;fill:#03253D;"/>
							<clipPath id="SVGID_136_">
								<use xlink:href="#SVGID_135_"  style="overflow:visible;"/>
							</clipPath>
							<rect x="246.11" y="183.34" class="st93" width="9.03" height="9.15"/>
						</g>
					</g>
					<g>
						<defs>
							<path id="SVGID_137_" d="M255.38,190.55h-0.42c-0.55,0-0.81-0.31-0.81-0.77v-0.69h1.22v0.41h2.61v-1.08c0,0-2.51,0-2.99,0
								c-0.48,0-0.82-0.32-0.82-0.76v-1.56c0-0.47,0.37-0.81,0.83-0.81c0.46,0,3.42,0,3.42,0c0.46,0,0.78,0.35,0.78,0.84
								c0,0.5,0,0.63,0,0.63h-1.22v-0.42h-2.61v1.04h2.98c0.44,0,0.84,0.29,0.84,0.85v1.5c0,0.51-0.28,0.82-0.82,0.82
								C257.85,190.55,255.38,190.55,255.38,190.55z"/>
						</defs>
						<use xlink:href="#SVGID_137_"  style="overflow:visible;fill:#03253D;"/>
						<clipPath id="SVGID_138_">
							<use xlink:href="#SVGID_137_"  style="overflow:visible;"/>
						</clipPath>
						<g class="st94">
							<defs>
								<rect id="SVGID_139_" x="47.19" y="170.8" width="233.01" height="351.07"/>
							</defs>
							<use xlink:href="#SVGID_139_"  style="overflow:visible;fill:#03253D;"/>
							<clipPath id="SVGID_140_">
								<use xlink:href="#SVGID_139_"  style="overflow:visible;"/>
							</clipPath>
							<rect x="252.21" y="183.35" class="st95" width="8.93" height="9.14"/>
						</g>
					</g>
					<polygon class="st16" points="260.38,190.55 260.38,185.29 261.63,185.29 261.63,187.39 264.01,185.29 265.7,185.29 
						262.86,187.73 265.81,190.55 264.05,190.55 261.63,188.16 261.63,190.55 					"/>
					<g>
						<defs>
							<path id="SVGID_141_" d="M223.38,192.77c0,0.73-0.62,1.32-1.38,1.32h-8.68c-0.76,0-1.38-0.59-1.38-1.32v-8.93
								c0-0.73,0.62-1.32,1.38-1.32H222c0.76,0,1.38,0.59,1.38,1.32V192.77z"/>
						</defs>
						<clipPath id="SVGID_142_">
							<use xlink:href="#SVGID_141_"  style="overflow:visible;"/>
						</clipPath>
						<g class="st96">
							<defs>
								<rect id="SVGID_143_" x="47.19" y="170.8" width="233.01" height="351.07"/>
							</defs>
							<clipPath id="SVGID_144_">
								<use xlink:href="#SVGID_143_"  style="overflow:visible;"/>
							</clipPath>
							<rect x="210" y="180.58" class="st97" width="15.32" height="15.46"/>
						</g>
					</g>
					<g>
						<defs>
							<polygon id="SVGID_145_" points="219.49,188 221.75,185.29 221.74,185.28 218.48,186.79 217.67,183.4 217.66,183.4 
								216.85,186.79 213.59,185.28 213.59,185.29 215.84,188 212.58,189.51 212.58,189.52 216.2,189.52 215.4,192.91 
								215.41,192.91 217.66,190.2 219.92,192.91 219.93,192.9 219.13,189.52 222.74,189.52 222.75,189.51 							"/>
						</defs>
						<clipPath id="SVGID_146_">
							<use xlink:href="#SVGID_145_"  style="overflow:visible;"/>
						</clipPath>
						<g class="st98">
							<defs>
								<rect id="SVGID_147_" x="47.19" y="170.8" width="233.01" height="351.07"/>
							</defs>
							<clipPath id="SVGID_148_">
								<use xlink:href="#SVGID_147_"  style="overflow:visible;"/>
							</clipPath>
							<rect x="210.64" y="181.46" class="st99" width="14.05" height="13.39"/>
						</g>
					</g>
				</g>
			</g>
		</g>
	</g>
</g>
</svg>
